<?xml version="1.0" encoding="UTF-8"?>
<svg version="1.1" xmlns="http://www.w3.org/2000/svg" width="238" height="188">
<path d="M0 0 C78.54 0 157.08 0 238 0 C238 62.04 238 124.08 238 188 C159.46 188 80.92 188 0 188 C0 125.96 0 63.92 0 0 Z " fill="#1D1D1E" transform="translate(0,0)"/>
<path d="M0 0 C0.99 0 1.98 0 3 0 C3 1.65 3 3.3 3 5 C3.66 5 4.32 5 5 5 C5 3.35 5 1.7 5 0 C5.99 0 6.98 0 8 0 C8 1.65 8 3.3 8 5 C9.11395393 4.99333817 9.11395393 4.99333817 10.25041199 4.98654175 C17.35175537 4.94596942 24.45305664 4.9157694 31.55448437 4.89637566 C35.20279694 4.88606909 38.85101143 4.87216009 42.49926758 4.84912109 C59.10020248 4.74696058 75.49686452 4.92232188 92 7 C92 6.34 92 5.68 92 5 C96.82817691 4.90532986 101.26641134 4.94809141 106 6 C107.6662553 6.0370279 109.33401319 6.04759962 111 6 C111 4.35 111 2.7 111 1 C111.66 1 112.32 1 113 1 C113 2.65 113 4.3 113 6 C114.98 6 116.96 6 119 6 C119 6.66 119 7.32 119 8 C120.32 8 121.64 8 123 8 C123 7.01 123 6.02 123 5 C125.64347024 5.45316633 127.91851126 5.96354451 130.375 7.0625 C133.67302227 8.2403651 136.52515231 8.13626854 140 8 C140 5.36 140 2.72 140 0 C140.99 0 141.98 0 143 0 C143 2.97 143 5.94 143 9 C143.7113208 9.02505615 144.4226416 9.0501123 145.15551758 9.07592773 C148.37469517 9.19188439 151.59357985 9.31461245 154.8125 9.4375 C155.93205078 9.47681641 157.05160156 9.51613281 158.20507812 9.55664062 C159.81479492 9.61948242 159.81479492 9.61948242 161.45703125 9.68359375 C162.44678955 9.72025146 163.43654785 9.75690918 164.45629883 9.79467773 C167 10 167 10 170 11 C171.33363703 11.14403348 172.67218046 11.24590423 174.01171875 11.31640625 C174.76904297 11.35830078 175.52636719 11.40019531 176.30664062 11.44335938 C177.48516602 11.50233398 177.48516602 11.50233398 178.6875 11.5625 C179.48478516 11.60568359 180.28207031 11.64886719 181.10351562 11.69335938 C183.06881447 11.79927368 185.03438496 11.90012551 187 12 C188.125 15.75 188.125 15.75 187 18 C184.31243045 18.02720824 181.62514202 18.0469388 178.9375 18.0625 C178.18533203 18.07087891 177.43316406 18.07925781 176.65820312 18.08789062 C171.99366882 18.10808341 167.60076827 17.77595959 163 17 C162.9175 17.928125 162.835 18.85625 162.75 19.8125 C162 23 162 23 160.125 24.875 C158 26 158 26 155 26 C155.33 25.01 155.66 24.02 156 23 C156.99 22.67 157.98 22.34 159 22 C159.33 21.34 159.66 20.68 160 20 C159.34 20 158.68 20 158 20 C158 18.68 158 17.36 158 16 C157.2471875 16.01160156 156.494375 16.02320312 155.71875 16.03515625 C146.76939052 16.11118236 137.91983222 15.64122029 129 15 C129 15.66 129 16.32 129 17 C131.31 17 133.62 17 136 17 C136 26.57 136 36.14 136 46 C137.32 46 138.64 46 140 46 C140 45.34 140 44.68 140 44 C141.875 44.3125 141.875 44.3125 144 45 C146 48 146 48 146 52 C146.99 52 147.98 52 149 52 C150.39521556 54.23953056 151.76562784 56.4888661 153.125 58.75 C153.72248047 59.70132813 153.72248047 59.70132813 154.33203125 60.671875 C155.4453125 62.546875 155.4453125 62.546875 157 66 C156.2421875 68.453125 156.2421875 68.453125 155 70 C155.66 70 156.32 70 157 70 C157.88873597 73.09950623 158.18543782 75.98504367 158.31640625 79.203125 C158.37924805 80.67265625 158.37924805 80.67265625 158.44335938 82.171875 C158.48267578 83.18765625 158.52199219 84.2034375 158.5625 85.25 C158.60568359 86.28125 158.64886719 87.3125 158.69335938 88.375 C158.79925682 90.9165387 158.90133443 93.45817196 159 96 C158.01 96 157.02 96 156 96 C155.67 94.68 155.34 93.36 155 92 C153.24994333 97.27742004 152.72630876 101.80114305 152.8046875 107.33984375 C152.8075174 108.10680069 152.81034729 108.87375763 152.81326294 109.66395569 C152.82436525 112.08863621 152.84945033 114.51293309 152.875 116.9375 C152.8850427 118.5917915 152.89416628 120.24608885 152.90234375 121.90039062 C152.92427183 125.93373923 152.95873157 129.9668048 153 134 C153.66 134 154.32 134 155 134 C155.33 133.34 155.66 132.68 156 132 C156.99 132 157.98 132 159 132 C159.28999065 140.55472404 159.28999065 140.55472404 157 145 C155.47436733 146.52563267 153.93293162 146.22582391 151.8125 146.375 C147.64230484 146.78006673 144.67866893 147.93635645 141 150 C140.34 150 139.68 150 139 150 C139 148.68 139 147.36 139 146 C135.7 146 132.4 146 129 146 C129 146.99 129 147.98 129 149 C130.98 149 132.96 149 135 149 C135 149.99 135 150.98 135 152 C131.625 152.125 131.625 152.125 128 152 C127.34 151.34 126.68 150.68 126 150 C126 148.68 126 147.36 126 146 C123.69 146 121.38 146 119 146 C118.855625 146.804375 118.71125 147.60875 118.5625 148.4375 C118 151 118 151 117 152 C114.66055264 151.71269945 112.3260857 151.38063221 110 151 C110 152.98 110 154.96 110 157 C109.34 157 108.68 157 108 157 C107.67 153.37 107.34 149.74 107 146 C104.69 145.67 102.38 145.34 100 145 C100 146.32 100 147.64 100 149 C101.32 149 102.64 149 104 149 C104 149.99 104 150.98 104 152 C100.04 152 96.08 152 92 152 C92 151.01 92 150.02 92 149 C93.65 149 95.3 149 97 149 C97 147.35 97 145.7 97 144 C91.39 144 85.78 144 80 144 C80 146.64 80 149.28 80 152 C79.01 152 78.02 152 77 152 C77 149.03 77 146.06 77 143 C72.38 142.67 67.76 142.34 63 142 C63.66 143.98 64.32 145.96 65 148 C67.31 148.33 69.62 148.66 72 149 C71.67 149.99 71.34 150.98 71 152 C64.65492958 152.35915493 64.65492958 152.35915493 62.0625 150.9375 C60.44520395 147.98831309 60.81369862 145.29132441 61 142 C58.36 142.33 55.72 142.66 53 143 C54.32 143.99 55.64 144.98 57 146 C56.125 150.875 56.125 150.875 55 152 C52.32941149 152.14115161 49.67567762 152.04247107 47 152 C46.01 150.02 46.01 150.02 45 148 C47.97 148.33 50.94 148.66 54 149 C52.37633534 145.75267068 49.24612161 145.29844864 46 144 C46 143.34 46 142.68 46 142 C42.7 142.33 39.4 142.66 36 143 C34.35 146.96 32.7 150.92 31 155 C30.01 155 29.02 155 28 155 C27.67 154.01 27.34 153.02 27 152 C24.82422337 150.65061396 22.71387645 149.46148243 20.4375 148.3125 C19.82197266 147.99216797 19.20644531 147.67183594 18.57226562 147.34179688 C17.0526445 146.55253629 15.52688189 145.77512085 14 145 C14 144.01 14 143.02 14 142 C8.72 142 3.44 142 -2 142 C-2.33 140.35 -2.66 138.7 -3 137 C-2.01 136.67 -1.02 136.34 0 136 C0 134.68 0 133.36 0 132 C0.99 132 1.98 132 3 132 C3 133.32 3 134.64 3 136 C3.66 136 4.32 136 5 136 C5 134.68 5 133.36 5 132 C5.99 132 6.98 132 8 132 C8 133.32 8 134.64 8 136 C9.32 135.67 10.64 135.34 12 135 C11.99907821 134.37216645 11.99815641 133.7443329 11.99720669 133.0974741 C11.97515125 117.84209769 11.95858835 102.58672616 11.94818783 87.33133793 C11.94302492 79.95404044 11.93598233 72.57675357 11.92456055 65.19946289 C11.91461354 58.7716782 11.90814653 52.3439012 11.90591151 45.91610903 C11.90460443 42.51060722 11.90151875 39.10512742 11.89426994 35.69963264 C11.88706394 31.90398959 11.88600887 28.10839288 11.88647461 24.31274414 C11.88287933 23.17554932 11.87928406 22.03835449 11.87557983 20.86669922 C11.8769545 19.83879776 11.87832916 18.8108963 11.87974548 17.75184631 C11.87882369 16.85309815 11.8779019 15.95434999 11.87695217 15.02836704 C12 13 12 13 13 12 C0.13 11.505 0.13 11.505 -13 11 C-13.33 9.68 -13.66 8.36 -14 7 C-12 5 -12 5 -9.1796875 4.8046875 C-8.08914062 4.82789063 -6.99859375 4.85109375 -5.875 4.875 C-4.77929688 4.89304687 -3.68359375 4.91109375 -2.5546875 4.9296875 C-1.71164063 4.95289063 -0.86859375 4.97609375 0 5 C0 3.35 0 1.7 0 0 Z " fill="#273538" transform="translate(43,18)"/>
<path d="M0 0 C2.27734375 -0.3984375 2.27734375 -0.3984375 4.9375 -0.375 C6.25041016 -0.38660156 6.25041016 -0.38660156 7.58984375 -0.3984375 C10.44042275 0.07280895 11.14369302 0.87007552 13 3 C15.59915538 4.19027984 15.59915538 4.19027984 18 5 C18 5.66 18 6.32 18 7 C15.03 6.67 12.06 6.34 9 6 C9.66 6.99 10.32 7.98 11 9 C12.97747122 9.36297936 12.97747122 9.36297936 15.125 9.1875 C16.40375 9.125625 17.6825 9.06375 19 9 C19.33 7.35 19.66 5.7 20 4 C17.69 3.01 15.38 2.02 13 1 C13 0.67 13 0.34 13 0 C16.96 0 20.92 0 25 0 C25.495 4.455 25.495 4.455 26 9 C28.97 9 31.94 9 35 9 C35.33 8.34 35.66 7.68 36 7 C34.329375 7.061875 34.329375 7.061875 32.625 7.125 C29 7 29 7 27 5 C26.875 2.375 26.875 2.375 27 0 C28.77074917 -0.02705729 30.54161711 -0.04642195 32.3125 -0.0625 C33.29863281 -0.07410156 34.28476563 -0.08570313 35.30078125 -0.09765625 C38 0 38 0 41 1 C41 3.97 41 6.94 41 10 C41.99 10 42.98 10 44 10 C44 7.36 44 4.72 44 2 C49.61 2 55.22 2 61 2 C61 3.65 61 5.3 61 7 C59.35 7 57.7 7 56 7 C56 7.99 56 8.98 56 10 C59.96 10 63.92 10 68 10 C68 9.01 68 8.02 68 7 C66.68 7 65.36 7 64 7 C64 5.68 64 4.36 64 3 C66.33294775 2.95758277 68.66702567 2.95907063 71 3 C72 4 72 4 72.09765625 6.50390625 C72.08605469 7.51324219 72.07445312 8.52257812 72.0625 9.5625 C72.05347656 10.57441406 72.04445313 11.58632812 72.03515625 12.62890625 C72.02355469 13.41136719 72.01195312 14.19382813 72 15 C72.66 15 73.32 15 74 15 C74 13.02 74 11.04 74 9 C76.31 9 78.62 9 81 9 C81.66 7.35 82.32 5.7 83 4 C85.31 4 87.62 4 90 4 C90.99 6.475 90.99 6.475 92 9 C94.31 9.33 96.62 9.66 99 10 C99 9.01 99 8.02 99 7 C97.02 7 95.04 7 93 7 C93 6.01 93 5.02 93 4 C96.3 4 99.6 4 103 4 C103 5.32 103 6.64 103 8 C103.77923828 7.566875 103.77923828 7.566875 104.57421875 7.125 C105.27160156 6.75375 105.96898437 6.3825 106.6875 6 C107.37199219 5.62875 108.05648437 5.2575 108.76171875 4.875 C111 4 111 4 116 4 C116 9.94 116 15.88 116 22 C69.8 22 23.6 22 -24 22 C-24 15.07 -24 8.14 -24 1 C-23.34 1 -22.68 1 -22 1 C-21.58105469 1.42925781 -21.16210938 1.85851562 -20.73046875 2.30078125 C-18.49656514 4.49434348 -16.0749707 5.72501551 -13.3125 7.1875 C-11.82169922 7.98220703 -11.82169922 7.98220703 -10.30078125 8.79296875 C-9.54152344 9.19128906 -8.78226563 9.58960938 -8 10 C-8 10.99 -8 11.98 -8 13 C-7.01 13 -6.02 13 -5 13 C-4.80664062 12.31292969 -4.61328125 11.62585938 -4.4140625 10.91796875 C-4.15367188 10.01691406 -3.89328125 9.11585938 -3.625 8.1875 C-3.36976562 7.29417969 -3.11453125 6.40085938 -2.8515625 5.48046875 C-2 3 -2 3 0 0 Z " fill="#293538" transform="translate(79,160)"/>
<path d="M0 0 C40.92 0 81.84 0 124 0 C124 6.6 124 13.2 124 20 C117.92485609 20 116.13078418 19.46277641 111 17 C111 17.99 111 18.98 111 20 C109.68 20 108.36 20 107 20 C107 19.34 107 18.68 107 18 C105.02 18 103.04 18 101 18 C101 16.35 101 14.7 101 13 C100.34 13 99.68 13 99 13 C99 14.65 99 16.3 99 18 C89.72727273 19.31313131 89.72727273 19.31313131 85 18 C84.071875 17.814375 83.14375 17.62875 82.1875 17.4375 C81.1046875 17.2209375 81.1046875 17.2209375 80 17 C80 17.66 80 18.32 80 19 C75.47868775 18.88958177 70.95816761 18.75907813 66.4375 18.625 C65.16068359 18.5940625 63.88386719 18.563125 62.56835938 18.53125 C61.32763672 18.49257813 60.08691406 18.45390625 58.80859375 18.4140625 C57.67220459 18.3826416 56.53581543 18.3512207 55.36499023 18.31884766 C52 18 52 18 48.73242188 17 C43.92945275 15.71317625 39.42360038 15.6462517 34.47265625 15.5859375 C33.48373886 15.56657135 32.49482147 15.5472052 31.47593689 15.5272522 C28.33821049 15.46779378 25.20044672 15.42120644 22.0625 15.375 C19.92641689 15.33678916 17.79034867 15.29773564 15.65429688 15.2578125 C10.43631986 15.16212008 5.21827077 15.07796505 0 15 C0 10.05 0 5.1 0 0 Z " fill="#283538" transform="translate(55,6)"/>
<path d="M0 0 C0.99 0 1.98 0 3 0 C3 1.65 3 3.3 3 5 C3.66 5 4.32 5 5 5 C5 3.35 5 1.7 5 0 C5.99 0 6.98 0 8 0 C8 1.65 8 3.3 8 5 C9.11395393 4.99333817 9.11395393 4.99333817 10.25041199 4.98654175 C17.35175537 4.94596942 24.45305664 4.9157694 31.55448437 4.89637566 C35.20279694 4.88606909 38.85101143 4.87216009 42.49926758 4.84912109 C59.10020248 4.74696058 75.49686452 4.92232188 92 7 C92 6.34 92 5.68 92 5 C96.82817691 4.90532986 101.26641134 4.94809141 106 6 C107.6662553 6.0370279 109.33401319 6.04759962 111 6 C111 4.35 111 2.7 111 1 C111.66 1 112.32 1 113 1 C113 2.65 113 4.3 113 6 C114.98 6 116.96 6 119 6 C119 6.66 119 7.32 119 8 C120.32 8 121.64 8 123 8 C123 7.01 123 6.02 123 5 C125.64347024 5.45316633 127.91851126 5.96354451 130.375 7.0625 C133.67302227 8.2403651 136.52515231 8.13626854 140 8 C140 5.36 140 2.72 140 0 C140.99 0 141.98 0 143 0 C143 2.97 143 5.94 143 9 C143.7113208 9.02505615 144.4226416 9.0501123 145.15551758 9.07592773 C148.37469517 9.19188439 151.59357985 9.31461245 154.8125 9.4375 C155.93205078 9.47681641 157.05160156 9.51613281 158.20507812 9.55664062 C159.81479492 9.61948242 159.81479492 9.61948242 161.45703125 9.68359375 C162.44678955 9.72025146 163.43654785 9.75690918 164.45629883 9.79467773 C167 10 167 10 170 11 C171.33363703 11.14403348 172.67218046 11.24590423 174.01171875 11.31640625 C174.76904297 11.35830078 175.52636719 11.40019531 176.30664062 11.44335938 C177.48516602 11.50233398 177.48516602 11.50233398 178.6875 11.5625 C179.48478516 11.60568359 180.28207031 11.64886719 181.10351562 11.69335938 C183.06881447 11.79927368 185.03438496 11.90012551 187 12 C188.125 15.75 188.125 15.75 187 18 C184.31243045 18.02720824 181.62514202 18.0469388 178.9375 18.0625 C178.18533203 18.07087891 177.43316406 18.07925781 176.65820312 18.08789062 C171.99366882 18.10808341 167.60076827 17.77595959 163 17 C162.9175 17.928125 162.835 18.85625 162.75 19.8125 C162 23 162 23 160.125 24.875 C158 26 158 26 155 26 C155.33 25.01 155.66 24.02 156 23 C156.99 22.67 157.98 22.34 159 22 C159.33 21.34 159.66 20.68 160 20 C159.34 20 158.68 20 158 20 C158 18.68 158 17.36 158 16 C153.92492428 15.95053134 149.84996503 15.91424811 145.7746582 15.89013672 C144.38855952 15.8800843 143.00248201 15.8664403 141.61645508 15.84912109 C139.6233025 15.82484048 137.62999467 15.81457969 135.63671875 15.8046875 C134.43748779 15.79421387 133.23825684 15.78374023 132.00268555 15.77294922 C128.81837173 15.76691928 128.81837173 15.76691928 126 18 C125.01 18 124.02 18 123 18 C123 17.01 123 16.02 123 15 C120.03 14.67 117.06 14.34 114 14 C114 14.99 114 15.98 114 17 C115.65 17 117.3 17 119 17 C119 17.99 119 18.98 119 20 C116.125 20.125 116.125 20.125 113 20 C110.8614515 17.8614515 110.57344937 16.86724686 110 14 C108.02 13.67 106.04 13.34 104 13 C103.5359375 14.4540625 103.5359375 14.4540625 103.0625 15.9375 C102 19 102 19 101 20 C99.00041636 20.04080783 96.99954746 20.04254356 95 20 C95 21.65 95 23.3 95 25 C94.01 25 93.02 25 92 25 C92 21.04 92 17.08 92 13 C89.36 13 86.72 13 84 13 C84 14.32 84 15.64 84 17 C85.65 17 87.3 17 89 17 C89 17.99 89 18.98 89 20 C84.71 20 80.42 20 76 20 C76.495 18.515 76.495 18.515 77 17 C78.32 17 79.64 17 81 17 C81 16.01 81 15.02 81 14 C75.39 14 69.78 14 64 14 C64 15.98 64 17.96 64 20 C63.01 20 62.02 20 61 20 C61 17.36 61 14.72 61 12 C56.71 11.67 52.42 11.34 48 11 C48.495 13.475 48.495 13.475 49 16 C51.31 16.33 53.62 16.66 56 17 C55.505 18.485 55.505 18.485 55 20 C48.59181818 20.36272727 48.59181818 20.36272727 46.0625 18.8125 C44.67148017 16.43958382 44.78082683 14.70313576 45 12 C43.68 12.33 42.36 12.66 41 13 C41.04125 13.78375 41.0825 14.5675 41.125 15.375 C41 18 41 18 39 20 C36.31160615 20.26991906 33.70858064 20.08737357 31 20 C30.505 18.02 30.505 18.02 30 16 C32.64 16.33 35.28 16.66 38 17 C37.13551642 14.74426056 37.13551642 14.74426056 34.5 13.875 C30.2443204 12.8110801 26.35855223 12.82565791 22 13 C22.99 13.66 23.98 14.32 25 15 C25 15.99 25 16.98 25 18 C21.65174753 17.04335644 19.29561359 16.25282741 16.625 13.96875 C11.68073148 10.58639637 5.38188178 11.31860856 -0.375 11.25 C-1.58800781 11.22035156 -2.80101562 11.19070312 -4.05078125 11.16015625 C-7.03392021 11.0896884 -10.01628795 11.0368752 -13 11 C-13.625 9.125 -13.625 9.125 -14 7 C-12 5 -12 5 -9.1796875 4.8046875 C-8.08914062 4.82789063 -6.99859375 4.85109375 -5.875 4.875 C-4.77929688 4.89304687 -3.68359375 4.91109375 -2.5546875 4.9296875 C-1.71164063 4.95289063 -0.86859375 4.97609375 0 5 C0 3.35 0 1.7 0 0 Z " fill="#DC2408" transform="translate(43,18)"/>
<path d="M0 0 C0.99 0 1.98 0 3 0 C2.67 1.65 2.34 3.3 2 5 C14.87 5 27.74 5 41 5 C41 5.66 41 6.32 41 7 C45.18090413 7.02480683 49.36176872 7.04291049 53.54272461 7.05493164 C54.96363064 7.05994565 56.38453156 7.06675852 57.80541992 7.07543945 C59.85336576 7.08763388 61.9012431 7.09325772 63.94921875 7.09765625 C65.17987061 7.10289307 66.41052246 7.10812988 67.6784668 7.11352539 C70.60051522 7.01365383 73.15133696 6.58642627 76 6 C79.3125 6.4375 79.3125 6.4375 82 7 C82 7.66 82 8.32 82 9 C83.32 9 84.64 9 86 9 C86 8.34 86 7.68 86 7 C87.32 7 88.64 7 90 7 C90 5.35 90 3.7 90 2 C90.99 2 91.98 2 93 2 C93 3.65 93 5.3 93 7 C94.98 7 96.96 7 99 7 C99 7.66 99 8.32 99 9 C100.32 9 101.64 9 103 9 C103 8.01 103 7.02 103 6 C107.75 6.875 107.75 6.875 110 8 C112.0374763 8.22858114 114.08040303 8.41024278 116.125 8.5625 C117.76855469 8.68818359 117.76855469 8.68818359 119.4453125 8.81640625 C120.28835937 8.87699219 121.13140625 8.93757812 122 9 C121.125 13.875 121.125 13.875 120 15 C118.60755002 15.15829958 117.21046392 15.27665078 115.8125 15.375 C111.64230484 15.78006673 108.67866893 16.93635645 105 19 C104.34 19 103.68 19 103 19 C103 17.68 103 16.36 103 15 C99.7 15 96.4 15 93 15 C93 15.99 93 16.98 93 18 C94.98 18 96.96 18 99 18 C99 18.99 99 19.98 99 21 C95.625 21.125 95.625 21.125 92 21 C91.01 20.01 91.01 20.01 90 19 C90 17.68 90 16.36 90 15 C87.69 15 85.38 15 83 15 C82.855625 15.804375 82.71125 16.60875 82.5625 17.4375 C82 20 82 20 81 21 C78.66055264 20.71269945 76.3260857 20.38063221 74 20 C74 21.98 74 23.96 74 26 C73.34 26 72.68 26 72 26 C71.505 20.555 71.505 20.555 71 15 C68.69 14.67 66.38 14.34 64 14 C64 15.32 64 16.64 64 18 C65.32 18 66.64 18 68 18 C68 18.99 68 19.98 68 21 C64.04 21 60.08 21 56 21 C56 20.01 56 19.02 56 18 C57.65 18 59.3 18 61 18 C61 16.35 61 14.7 61 13 C55.39 13 49.78 13 44 13 C44 15.64 44 18.28 44 21 C43.01 21 42.02 21 41 21 C41 18.03 41 15.06 41 12 C34.07 11.505 34.07 11.505 27 11 C27.99 13.97 27.99 13.97 29 17 C31.31 17.33 33.62 17.66 36 18 C35.505 19.485 35.505 19.485 35 21 C28.65492958 21.35915493 28.65492958 21.35915493 26.0625 19.9375 C24.44520395 16.98831309 24.81369862 14.29132441 25 11 C22.36 11.33 19.72 11.66 17 12 C18.32 12.99 19.64 13.98 21 15 C20.125 19.875 20.125 19.875 19 21 C16.32941149 21.14115161 13.67567762 21.04247107 11 21 C10.34 19.68 9.68 18.36 9 17 C11.97 17.33 14.94 17.66 18 18 C16.37633534 14.75267068 13.24612161 14.29844864 10 13 C10 12.34 10 11.68 10 11 C6.7 11.33 3.4 11.66 0 12 C-1.65 15.96 -3.3 19.92 -5 24 C-5.99 24 -6.98 24 -8 24 C-8.33 23.01 -8.66 22.02 -9 21 C-11.17577663 19.65061396 -13.28612355 18.46148243 -15.5625 17.3125 C-16.48579102 16.83200195 -16.48579102 16.83200195 -17.42773438 16.34179688 C-18.9473555 15.55253629 -20.47311811 14.77512085 -22 14 C-22 13.01 -22 12.02 -22 11 C-27.28 11 -32.56 11 -38 11 C-38.33 9.35 -38.66 7.7 -39 6 C-38.01 5.67 -37.02 5.34 -36 5 C-36 3.68 -36 2.36 -36 1 C-35.01 1 -34.02 1 -33 1 C-33 2.32 -33 3.64 -33 5 C-32.34 5 -31.68 5 -31 5 C-31 3.68 -31 2.36 -31 1 C-30.01 1 -29.02 1 -28 1 C-28 2.32 -28 3.64 -28 5 C-19.09 5 -10.18 5 -1 5 C-0.67 3.35 -0.34 1.7 0 0 Z " fill="#F02709" transform="translate(79,149)"/>
<path d="M0 0 C1.98 0 3.96 0 6 0 C7.91489362 6.5106383 7.91489362 6.5106383 8.5 9.875 C8.665 10.57625 8.83 11.2775 9 12 C9.66 12.33 10.32 12.66 11 13 C10.773125 12.401875 10.54625 11.80375 10.3125 11.1875 C10 9 10 9 11.25 7.25 C13 6 13 6 16 6 C16.33 5.01 16.66 4.02 17 3 C19.31 3 21.62 3 24 3 C24.33 3.99 24.66 4.98 25 6 C27.97 6.495 27.97 6.495 31 7 C31 6.34 31 5.68 31 5 C31.639375 4.87625 32.27875 4.7525 32.9375 4.625 C33.618125 4.41875 34.29875 4.2125 35 4 C35.33 3.34 35.66 2.68 36 2 C41.875 2.875 41.875 2.875 43 4 C45.32817964 4.36760731 47.6618385 4.70241581 50 5 C50 3.35 50 1.7 50 0 C50.99 0.33 51.98 0.66 53 1 C53 2.32 53 3.64 53 5 C54.65 5 56.3 5 58 5 C58 5.99 58 6.98 58 8 C56.35 8 54.7 8 53 8 C53 10.64 53 13.28 53 16 C54.98 16 56.96 16 59 16 C59 16.99 59 17.98 59 19 C55.625 19.125 55.625 19.125 52 19 C50 17 50 17 49.8046875 14.8359375 C49.82789063 14.02382812 49.85109375 13.21171875 49.875 12.375 C49.89304688 11.55773437 49.91109375 10.74046875 49.9296875 9.8984375 C49.95289063 9.27195312 49.97609375 8.64546875 50 8 C47.69 8.66 45.38 9.32 43 10 C43 10.66 43 11.32 43 12 C43.66 12.33 44.32 12.66 45 13 C44.40138258 15.35171131 43.73075648 17.6859378 43 20 C40.22899606 21.38550197 38.0665294 21.1877467 35 21 C32 19 32 19 31 16 C30.34 16 29.68 16 29 16 C28.67 16.99 28.34 17.98 28 19 C25.49609375 19.94921875 25.49609375 19.94921875 22.4375 20.6875 C21.42558594 20.93886719 20.41367188 21.19023438 19.37109375 21.44921875 C18.58863281 21.63097656 17.80617188 21.81273438 17 22 C16.34 21.01 15.68 20.02 15 19 C12.17020719 18.67278934 12.17020719 18.67278934 9 18.875 C3.17040359 19.08520179 3.17040359 19.08520179 1 18 C1.04125 17.0925 1.0825 16.185 1.125 15.25 C1.00468444 12.1217954 0.6085292 10.61385994 -1 8 C-0.01 7.67 0.98 7.34 2 7 C2 5.68 2 4.36 2 3 C1.34 3 0.68 3 0 3 C0 2.01 0 1.02 0 0 Z M-33 3 C-31.4325 2.95875 -29.865 2.9175 -28.25 2.875 C-27.36828125 2.85179688 -26.4865625 2.82859375 -25.578125 2.8046875 C-22.8864142 3.00860498 -21.30095026 3.63448279 -19 5 C-18.67 4.34 -18.34 3.68 -18 3 C-12.87102106 2.63509241 -9.10182889 2.43942039 -4.4375 4.8125 C-2 7 -2 7 -1 10 C-1 13.79557881 -1.50178941 15.62902617 -3 19 C-3.99 19 -4.98 19 -6 19 C-7.3921875 19.061875 -7.3921875 19.061875 -8.8125 19.125 C-12.21924048 18.99140233 -14.82850112 18.20819005 -18 17 C-18.33 17.99 -18.66 18.98 -19 20 C-19.99 20.33 -20.98 20.66 -22 21 C-22.66 21.66 -23.32 22.32 -24 23 C-24 22.34 -24 21.68 -24 21 C-25.32 21.33 -26.64 21.66 -28 22 C-28 21.34 -28 20.68 -28 20 C-29.65 19.67 -31.3 19.34 -33 19 C-33 13.72 -33 8.44 -33 3 Z " fill="#333432" transform="translate(88,63)"/>
<path d="M0 0 C0.99 0 1.98 0 3 0 C3 1.65 3 3.3 3 5 C4.98 5 6.96 5 9 5 C9 5.66 9 6.32 9 7 C10.32 7 11.64 7 13 7 C13 6.01 13 5.02 13 4 C17.75 4.875 17.75 4.875 20 6 C22.0374763 6.22858114 24.08040303 6.41024278 26.125 6.5625 C27.76855469 6.68818359 27.76855469 6.68818359 29.4453125 6.81640625 C30.70988281 6.90728516 30.70988281 6.90728516 32 7 C31.125 11.875 31.125 11.875 30 13 C28.56927179 13.07411661 27.13482582 13.07819485 25.70239258 13.0534668 C24.7866597 13.0398259 23.87092682 13.026185 22.92744446 13.01213074 C21.9265831 12.99136978 20.92572174 12.97060883 19.89453125 12.94921875 C18.34834358 12.92091728 18.34834358 12.92091728 16.7709198 12.89204407 C14.57582453 12.85003263 12.38078028 12.80528309 10.18579102 12.75805664 C6.87200849 12.6887447 3.55820672 12.63385457 0.24414062 12.58007812 C-9.49886223 12.39577123 -18.96307759 12.08105684 -28.58398438 10.48535156 C-43.57887475 8.35485971 -59.07338234 8.74340325 -74.1875 8.4375 C-76.2207089 8.39415042 -78.25391209 8.35053197 -80.28710938 8.30664062 C-85.19134622 8.20134189 -90.09564488 8.09963123 -95 8 C-95.33 7.01 -95.66 6.02 -96 5 C-94.56966179 5.00333092 -94.56966179 5.00333092 -93.11042786 5.00672913 C-84.12042321 5.02700808 -75.13042322 5.04199508 -66.14040089 5.05181217 C-61.51863972 5.0570289 -56.89689702 5.06410463 -52.27514648 5.07543945 C-47.81422939 5.08631127 -43.35333006 5.09228596 -38.89240074 5.09487724 C-37.19117643 5.09672374 -35.48995308 5.10032947 -33.78873634 5.10573006 C-31.40446502 5.11299745 -29.02026696 5.11398853 -26.63598633 5.11352539 C-25.93395584 5.11712067 -25.23192535 5.12071594 -24.50862122 5.12442017 C-20.86218742 5.11676454 -17.55942883 4.74318066 -14 4 C-10.6875 4.4375 -10.6875 4.4375 -8 5 C-8 5.66 -8 6.32 -8 7 C-6.68 7 -5.36 7 -4 7 C-4 6.34 -4 5.68 -4 5 C-2.68 5 -1.36 5 0 5 C0 3.35 0 1.7 0 0 Z " fill="#F72405" transform="translate(169,151)"/>
<path d="M0 0 C4.19767654 1.54963731 5.65844266 4.62728141 7.94921875 8.33203125 C8.38685547 9.00943359 8.82449219 9.68683594 9.27539062 10.38476562 C10.89762869 12.91842904 12.47119986 15.37692705 13.7121582 18.12182617 C14.75182198 20.34490079 14.75182198 20.34490079 17.76171875 22.01953125 C18.640625 24.56640625 18.640625 24.56640625 19.32421875 27.76953125 C19.57816406 28.94128906 19.83210938 30.11304688 20.09375 31.3203125 C20.73405212 34.86631313 21.13529847 38.37496725 21.51171875 41.95703125 C22.53683951 49.77248186 25.66420958 59.10576689 31.50390625 64.68359375 C32.12652344 65.34488281 32.12652344 65.34488281 32.76171875 66.01953125 C32.44921875 69.70703125 32.44921875 69.70703125 31.76171875 73.01953125 C28.79171875 74.00953125 28.79171875 74.00953125 25.76171875 75.01953125 C25.99761719 74.47425781 26.23351562 73.92898437 26.4765625 73.3671875 C26.90170065 69.86707753 25.30560687 68.29586218 23.32421875 65.45703125 C19.76171875 60.31894417 19.76171875 60.31894417 19.76171875 57.01953125 C18.44171875 57.01953125 17.12171875 57.01953125 15.76171875 57.01953125 C15.70636963 56.44509277 15.65102051 55.8706543 15.59399414 55.27880859 C15.33953115 52.65050506 15.08190064 50.02252107 14.82421875 47.39453125 C14.73720703 46.49089844 14.65019531 45.58726563 14.56054688 44.65625 C14.10920489 40.07596471 13.59701455 35.54969405 12.76171875 31.01953125 C11.77171875 31.01953125 10.78171875 31.01953125 9.76171875 31.01953125 C9.99761719 30.48585938 10.23351562 29.9521875 10.4765625 29.40234375 C10.90860948 25.79208813 9.22947743 23.91769025 7.32421875 20.89453125 C3.76171875 15.1917426 3.76171875 15.1917426 3.76171875 13.01953125 C2.77171875 13.01953125 1.78171875 13.01953125 0.76171875 13.01953125 C-2.74001135 5.25482537 -2.74001135 5.25482537 -3.23828125 1.01953125 C-2.23828125 0.01953125 -2.23828125 0.01953125 0 0 Z " fill="#D8341B" transform="translate(188.23828125,56.98046875)"/>
<path d="M0 0 C1.23290771 0.00338379 2.46581543 0.00676758 3.73608398 0.01025391 C16.0158907 0.0634678 28.29560809 0.24068789 40.57369995 0.44439697 C42.83922037 0.48116252 45.10478713 0.51518518 47.37039185 0.54632568 C70.70173606 0.87721181 70.70173606 0.87721181 81.4375 3.125 C81.4375 3.455 81.4375 3.785 81.4375 4.125 C79.4575 4.125 77.4775 4.125 75.4375 4.125 C75.4375 5.115 75.4375 6.105 75.4375 7.125 C77.0875 7.125 78.7375 7.125 80.4375 7.125 C80.4375 8.115 80.4375 9.105 80.4375 10.125 C77.5625 10.25 77.5625 10.25 74.4375 10.125 C72.2989515 7.9864515 72.01094937 6.99224686 71.4375 4.125 C69.4575 3.795 67.4775 3.465 65.4375 3.125 C64.9734375 4.5790625 64.9734375 4.5790625 64.5 6.0625 C63.4375 9.125 63.4375 9.125 62.4375 10.125 C60.43791636 10.16580783 58.43704746 10.16754356 56.4375 10.125 C56.4375 11.775 56.4375 13.425 56.4375 15.125 C55.4475 15.125 54.4575 15.125 53.4375 15.125 C53.4375 11.165 53.4375 7.205 53.4375 3.125 C50.7975 3.125 48.1575 3.125 45.4375 3.125 C45.4375 4.445 45.4375 5.765 45.4375 7.125 C47.0875 7.125 48.7375 7.125 50.4375 7.125 C50.4375 8.115 50.4375 9.105 50.4375 10.125 C46.1475 10.125 41.8575 10.125 37.4375 10.125 C37.7675 9.135 38.0975 8.145 38.4375 7.125 C39.7575 7.125 41.0775 7.125 42.4375 7.125 C42.4375 6.135 42.4375 5.145 42.4375 4.125 C36.8275 4.125 31.2175 4.125 25.4375 4.125 C25.4375 6.105 25.4375 8.085 25.4375 10.125 C24.4475 10.125 23.4575 10.125 22.4375 10.125 C22.4375 7.485 22.4375 4.845 22.4375 2.125 C18.1475 1.795 13.8575 1.465 9.4375 1.125 C9.9325 3.6 9.9325 3.6 10.4375 6.125 C12.7475 6.455 15.0575 6.785 17.4375 7.125 C17.1075 8.115 16.7775 9.105 16.4375 10.125 C10.02931818 10.48772727 10.02931818 10.48772727 7.5 8.9375 C6.10898017 6.56458382 6.21832683 4.82813576 6.4375 2.125 C5.1175 2.455 3.7975 2.785 2.4375 3.125 C2.47875 3.90875 2.52 4.6925 2.5625 5.5 C2.4375 8.125 2.4375 8.125 0.4375 10.125 C-2.25089385 10.39491906 -4.85391936 10.21237357 -7.5625 10.125 C-7.8925 8.805 -8.2225 7.485 -8.5625 6.125 C-5.9225 6.455 -3.2825 6.785 -0.5625 7.125 C-1.42698358 4.86926056 -1.42698358 4.86926056 -4.0625 4 C-8.3181796 2.9360801 -12.20394777 2.95065791 -16.5625 3.125 C-15.5725 3.785 -14.5825 4.445 -13.5625 5.125 C-13.5625 6.115 -13.5625 7.105 -13.5625 8.125 C-17.59571763 6.90565514 -21.10519479 5.56545073 -24.5625 3.125 C-24.5625 2.465 -24.5625 1.805 -24.5625 1.125 C-16.35457385 0.3191676 -8.24534084 -0.03404498 0 0 Z " fill="#9F3427" transform="translate(81.5625,27.875)"/>
<path d="M0 0 C1.65 0 3.3 0 5 0 C6.59138085 4.17737474 7.21278058 7.53160785 7 12 C7.66 12 8.32 12 9 12 C9.09765625 18.15234375 9.09765625 18.15234375 9 20 C8.67 20.33 8.34 20.66 8 21 C8.02026933 24.11841704 8.10313024 27.21329372 8.2265625 30.328125 C8.28968802 32.26169843 8.35216751 34.19529304 8.4140625 36.12890625 C8.51713921 39.18832125 8.62489562 42.24732243 8.74414062 45.30615234 C8.85656745 48.25068713 8.94926026 51.19532495 9.0390625 54.140625 C9.09980453 55.50806854 9.09980453 55.50806854 9.16177368 56.90313721 C9.29632668 61.81689017 9.19758498 64.97773628 6 69 C2.125 68.125 2.125 68.125 1 67 C0.92315419 64.35842514 0.90941607 61.7427069 0.9375 59.1015625 C0.9460707 57.41927138 0.95452963 55.73697968 0.96289062 54.0546875 C0.96909424 53.16749023 0.97529785 52.28029297 0.98168945 51.36621094 C1.0962614 34.21402633 0.85307084 17.13401856 0 0 Z " fill="#FA2302" transform="translate(42,50)"/>
<path d="M0 0 C30.41140551 -0.18968826 30.41140551 -0.18968826 41.5625 0.375 C42.22999268 0.40585693 42.89748535 0.43671387 43.58520508 0.46850586 C47.84450449 0.72096711 51.97987194 1.31652744 56.19140625 2 C65.87964402 3.42621034 75.59861221 3.46143548 85.375 3.625 C87.28647414 3.66328139 89.1979329 3.70233857 91.109375 3.7421875 C95.73945505 3.83705338 100.36961517 3.92147562 105 4 C101.78425284 6.55162546 98.95087809 7.83269511 95 9 C95 7.68 95 6.36 95 5 C91.7 5 88.4 5 85 5 C85 5.99 85 6.98 85 8 C86.98 8 88.96 8 91 8 C91 8.99 91 9.98 91 11 C87.625 11.125 87.625 11.125 84 11 C83.01 10.01 83.01 10.01 82 9 C82 7.68 82 6.36 82 5 C79.69 5 77.38 5 75 5 C74.855625 5.804375 74.71125 6.60875 74.5625 7.4375 C74 10 74 10 73 11 C70.66055264 10.71269945 68.3260857 10.38063221 66 10 C66 11.98 66 13.96 66 16 C65.34 16 64.68 16 64 16 C63.505 10.555 63.505 10.555 63 5 C60.69 4.67 58.38 4.34 56 4 C56 5.32 56 6.64 56 8 C57.32 8 58.64 8 60 8 C60 8.99 60 9.98 60 11 C56.04 11 52.08 11 48 11 C48 10.01 48 9.02 48 8 C49.65 8 51.3 8 53 8 C53 6.35 53 4.7 53 3 C47.39 3 41.78 3 36 3 C36 5.64 36 8.28 36 11 C35.01 11 34.02 11 33 11 C33 8.03 33 5.06 33 2 C26.07 1.505 26.07 1.505 19 1 C19.66 2.98 20.32 4.96 21 7 C23.31 7.33 25.62 7.66 28 8 C27.67 8.99 27.34 9.98 27 11 C20.65492958 11.35915493 20.65492958 11.35915493 18.0625 9.9375 C16.44520395 6.98831309 16.81369862 4.29132441 17 1 C14.36 1.33 11.72 1.66 9 2 C10.32 2.99 11.64 3.98 13 5 C12.125 9.875 12.125 9.875 11 11 C8.32941149 11.14115161 5.67567762 11.04247107 3 11 C2.34 9.68 1.68 8.36 1 7 C3.97 7.33 6.94 7.66 10 8 C8.37633534 4.75267068 5.24612161 4.29844864 2 3 C2 2.34 2 1.68 2 1 C1.34 0.67 0.68 0.34 0 0 Z " fill="#CD2F18" transform="translate(87,159)"/>
<path d="M0 0 C1.5 1.25 1.5 1.25 3 3 C3 4.32 3 5.64 3 7 C3.99 7 4.98 7 6 7 C13.88716502 18.7461213 13.88716502 18.7461213 14.15625 24.12109375 C13.66327215 26.61860654 13.15607425 28.7323159 12 31 C8.6717269 32.66413655 5.00266027 31.81867406 1.375 31.5625 C0.57320312 31.51029297 -0.22859375 31.45808594 -1.0546875 31.40429688 C-3.03679103 31.27451629 -5.01844499 31.13790265 -7 31 C-7.19801866 12.87029144 -7.19801866 12.87029144 -6 7 C-5.34 6.67 -4.68 6.34 -4 6 C-4 6.66 -4 7.32 -4 8 C-2.68 8 -1.36 8 0 8 C0 5.36 0 2.72 0 0 Z " fill="#1F1D1D" transform="translate(186,63)"/>
<path d="M0 0 C1.29318901 0.00296837 1.29318901 0.00296837 2.61250305 0.0059967 C3.5071376 0.00463211 4.40177216 0.00326752 5.32351685 0.00186157 C8.25972604 -0.00017787 11.19583527 0.00617955 14.1320343 0.0138092 C15.62440613 0.01563705 15.62440613 0.01563705 17.14692688 0.01750183 C56.64760535 0.0744663 56.64760535 0.0744663 73.5851593 1.6388092 C81.93842671 2.37501307 90.31500045 2.49788215 98.6945343 2.7013092 C100.37422992 2.74461538 102.05391753 2.78823298 103.7335968 2.83216858 C107.80382614 2.93796706 111.87413997 3.03957021 115.9445343 3.1388092 C115.6145343 3.7988092 115.2845343 4.4588092 114.9445343 5.1388092 C113.94610001 5.13658859 112.94766571 5.13436798 111.91897583 5.13208008 C102.46054654 5.11171434 93.00212175 5.09677279 83.54367542 5.08699703 C78.68224987 5.08180211 73.82084216 5.07476682 68.95942688 5.06336975 C64.2585705 5.0524194 59.55773118 5.0465069 54.85686302 5.04393196 C53.07293619 5.04209943 51.28901018 5.03852149 49.50509071 5.03307915 C40.48819177 5.00669129 31.58891206 5.12687227 22.59902954 5.9263916 C19.37510559 6.18437594 16.21708374 6.16677302 12.98750305 6.01771545 C11.85635071 5.96937561 10.72519836 5.92103577 9.55976868 5.87123108 C8.42861633 5.81515686 7.29746399 5.75908264 6.1320343 5.7013092 C4.95060852 5.64910217 3.76918274 5.59689514 2.55195618 5.54310608 C-0.31757935 5.415313 -3.18658723 5.28047032 -6.0554657 5.1388092 C-6.6179657 3.2013092 -6.6179657 3.2013092 -7.0554657 1.1388092 C-5.18321786 -0.73343863 -2.49115605 0.00985872 0 0 Z " fill="#F92303" transform="translate(36.05546569824219,23.861190795898438)"/>
<path d="M0 0 C6.95189613 -0.02567854 13.90377971 -0.04300232 20.85571289 -0.05493164 C23.21313941 -0.05991291 25.57056293 -0.06670035 27.92797852 -0.07543945 C41.3240721 -0.1238008 54.6394643 -0.03890551 68 1 C69.125 4.75 69.125 4.75 68 7 C65.31243045 7.02720824 62.62514202 7.0469388 59.9375 7.0625 C59.18533203 7.07087891 58.43316406 7.07925781 57.65820312 7.08789062 C52.99366882 7.10808341 48.60076827 6.77595959 44 6 C43.9175 6.928125 43.835 7.85625 43.75 8.8125 C43 12 43 12 41.125 13.875 C39 15 39 15 36 15 C36.33 14.01 36.66 13.02 37 12 C37.99 11.67 38.98 11.34 40 11 C40.33 10.34 40.66 9.68 41 9 C40.34 9 39.68 9 39 9 C39 7.68 39 6.36 39 5 C34.92492428 4.95053134 30.84996503 4.91424811 26.7746582 4.89013672 C25.38855952 4.8800843 24.00248201 4.8664403 22.61645508 4.84912109 C20.6233025 4.82484048 18.62999467 4.81457969 16.63671875 4.8046875 C15.43748779 4.79421387 14.23825684 4.78374023 13.00268555 4.77294922 C9.81837173 4.76691928 9.81837173 4.76691928 7 7 C6.01 7 5.02 7 4 7 C4 6.01 4 5.02 4 4 C2.68 3.34 1.36 2.68 0 2 C0 1.34 0 0.68 0 0 Z " fill="#C92A14" transform="translate(162,29)"/>
<path d="M0 0 C1.5675 -0.04125 3.135 -0.0825 4.75 -0.125 C5.63171875 -0.14820312 6.5134375 -0.17140625 7.421875 -0.1953125 C10.1135858 0.00860498 11.69904974 0.63448279 14 2 C14.33 1.34 14.66 0.68 15 0 C18.3 0 21.6 0 25 0 C21 2 21 2 19 2 C18.03929566 4.88211302 17.89418117 6.69850044 17.9375 9.6875 C17.94652344 10.49574219 17.95554687 11.30398437 17.96484375 12.13671875 C17.97644531 12.75160156 17.98804687 13.36648437 18 14 C17.01 14 16.02 14 15 14 C14.67 14.99 14.34 15.98 14 17 C13.01 17.33 12.02 17.66 11 18 C10.34 18.66 9.68 19.32 9 20 C9 19.34 9 18.68 9 18 C7.68 18.33 6.36 18.66 5 19 C5 18.34 5 17.68 5 17 C3.35 16.67 1.7 16.34 0 16 C0 10.72 0 5.44 0 0 Z " fill="#323533" transform="translate(55,66)"/>
<path d="M0 0 C1.98 0 3.96 0 6 0 C6 5.28 6 10.56 6 16 C7.98 16 9.96 16 12 16 C12 16.99 12 17.98 12 19 C10.54176788 19.0270043 9.08339325 19.04639787 7.625 19.0625 C6.81289062 19.07410156 6.00078125 19.08570312 5.1640625 19.09765625 C3 19 3 19 1 18 C1.04125 17.0925 1.0825 16.185 1.125 15.25 C1.00468444 12.1217954 0.6085292 10.61385994 -1 8 C-0.01 7.67 0.98 7.34 2 7 C2 5.68 2 4.36 2 3 C1.34 3 0.68 3 0 3 C0 2.01 0 1.02 0 0 Z M-7 4 C-4.25 5.3125 -4.25 5.3125 -2 7 C-0.43916822 11.68249535 -1.05585331 14.62566995 -3 19 C-3.99 19 -4.98 19 -6 19 C-6.969375 19.0825 -7.93875 19.165 -8.9375 19.25 C-12 19 -12 19 -14.375 17.4375 C-16.62340519 14.06489221 -16.56783945 11.97487617 -16 8 C-13.4398224 4.30196568 -11.44940066 3.24034623 -7 4 Z " fill="#2F332F" transform="translate(88,63)"/>
<path d="M0 0 C2 1 2 1 3.0859375 3.19921875 C4.56962253 7.74538185 4.65594019 12.24050589 5 17 C5.33 11.72 5.66 6.44 6 1 C8.29441735 4.44162603 8.33243471 6.24077726 8.6875 10.3125 C9.73812929 18.46334983 12.63685014 27.83250708 18.7421875 33.6640625 C19.15726563 34.10492188 19.57234375 34.54578125 20 35 C19.6875 38.6875 19.6875 38.6875 19 42 C17.02 42.66 15.04 43.32 13 44 C13.23589844 43.45472656 13.47179687 42.90945312 13.71484375 42.34765625 C14.1399819 38.84754628 12.54388812 37.27633093 10.5625 34.4375 C7 29.29941292 7 29.29941292 7 26 C5.68 26 4.36 26 3 26 C2.91697632 25.13834229 2.91697632 25.13834229 2.83227539 24.25927734 C2.5778124 21.63097381 2.32018189 19.00298982 2.0625 16.375 C1.93198242 15.01955078 1.93198242 15.01955078 1.79882812 13.63671875 C1.34748614 9.05643346 0.8352958 4.5301628 0 0 Z " fill="#E5260A" transform="translate(201,88)"/>
<path d="M0 0 C22.41488063 -0.32833065 44.63528626 0.59402569 67 2 C67 3.32 67 4.64 67 6 C64.52076199 6.02685095 62.0418116 6.04676547 59.5625 6.0625 C58.85544922 6.07087891 58.14839844 6.07925781 57.41992188 6.08789062 C55.61306441 6.09653588 53.80612397 6.05220011 52 6 C51.505 5.505 51.505 5.505 51 5 C49.23266824 4.85447268 47.45999006 4.77277531 45.6875 4.71875 C44.61242187 4.68136719 43.53734375 4.64398438 42.4296875 4.60546875 C41.29789063 4.57066406 40.16609375 4.53585938 39 4.5 C36.77069493 4.43144506 34.54151176 4.3587576 32.3125 4.28125 C31.31863281 4.25095703 30.32476562 4.22066406 29.30078125 4.18945312 C27 4 27 4 26 3 C24.07521187 2.84193469 22.1450079 2.748865 20.21484375 2.68359375 C19.04501953 2.64169922 17.87519531 2.59980469 16.66992188 2.55664062 C14.82237305 2.49766602 14.82237305 2.49766602 12.9375 2.4375 C11.70193359 2.39431641 10.46636719 2.35113281 9.19335938 2.30664062 C6.12902665 2.20015802 3.06460927 2.09814576 0 2 C0 1.34 0 0.68 0 0 Z " fill="#FA2303" transform="translate(162,29)"/>
<path d="M0 0 C0.66 0.33 1.32 0.66 2 1 C2.2105262 15.14736081 2.3661082 29.01461045 0 43 C-0.66 43 -1.32 43 -2 43 C-3.55495698 39.89008604 -3.24076956 36.56655951 -3.31640625 33.1484375 C-3.33718735 32.37440582 -3.35796844 31.60037415 -3.37937927 30.80288696 C-3.44483448 28.32701608 -3.50374087 25.85103798 -3.5625 23.375 C-3.60568907 21.69790552 -3.64930348 20.02082193 -3.69335938 18.34375 C-3.80051171 14.22927692 -3.90179045 10.11469586 -4 6 C-3.34 5.67 -2.68 5.34 -2 5 C-1.27840576 3.35636866 -0.60648579 1.68949614 0 0 Z " fill="#281A19" transform="translate(53,65)"/>
<path d="M0 0 C0.99 0 1.98 0 3 0 C2.67 1.65 2.34 3.3 2 5 C14.87 5 27.74 5 41 5 C41 5.66 41 6.32 41 7 C34.64641625 7.16820455 28.2926626 7.32809887 21.9387207 7.48217773 C19.77656299 7.53559441 17.61445166 7.59092351 15.45239258 7.64819336 C12.3472697 7.73011333 9.24204578 7.80518663 6.13671875 7.87890625 C5.16788254 7.90594131 4.19904633 7.93297638 3.20085144 7.96083069 C1.84979057 7.99097511 1.84979057 7.99097511 0.47143555 8.02172852 C-0.71770195 8.05170677 -0.71770195 8.05170677 -1.93086243 8.08229065 C-4 8 -4 8 -7 7 C-11.30883188 6.77330976 -15.61980464 6.77178104 -19.93383789 6.75976562 C-22.05849756 6.75001836 -24.18220617 6.71896218 -26.30664062 6.6875 C-27.65364009 6.68097356 -29.00064646 6.67572168 -30.34765625 6.671875 C-32.18855835 6.65785645 -32.18855835 6.65785645 -34.06665039 6.64355469 C-35.51865845 6.81999512 -35.51865845 6.81999512 -37 7 C-37.66 7.99 -38.32 8.98 -39 10 C-38.67 8.35 -38.34 6.7 -38 5 C-37.34 5 -36.68 5 -36 5 C-36 3.68 -36 2.36 -36 1 C-35.01 1 -34.02 1 -33 1 C-33 2.32 -33 3.64 -33 5 C-32.34 5 -31.68 5 -31 5 C-31 3.68 -31 2.36 -31 1 C-30.01 1 -29.02 1 -28 1 C-28 2.32 -28 3.64 -28 5 C-19.09 5 -10.18 5 -1 5 C-0.67 3.35 -0.34 1.7 0 0 Z " fill="#D32911" transform="translate(79,149)"/>
<path d="M0 0 C0.99 0 1.98 0 3 0 C3 2.97 3 5.94 3 9 C3.99 9.495 3.99 9.495 5 10 C0.41667994 10.02901401 -4.16661651 10.04680348 -8.75 10.0625 C-10.05195313 10.07087891 -11.35390625 10.07925781 -12.6953125 10.08789062 C-14.57089844 10.09272461 -14.57089844 10.09272461 -16.484375 10.09765625 C-18.21252441 10.10551147 -18.21252441 10.10551147 -19.97558594 10.11352539 C-22.57036687 10.01612685 -24.517159 9.63049114 -27 9 C-29.24519581 8.86335122 -31.49355626 8.77562376 -33.7421875 8.71875 C-35.71251953 8.66267578 -35.71251953 8.66267578 -37.72265625 8.60546875 C-39.10675844 8.56982804 -40.4908733 8.53467608 -41.875 8.5 C-44.58091711 8.43185852 -47.28648173 8.35810158 -49.9921875 8.28125 C-51.19214355 8.25095703 -52.39209961 8.22066406 -53.62841797 8.18945312 C-56.82200997 8.01000147 -59.85922319 7.59140223 -63 7 C-63 6.67 -63 6.34 -63 6 C-58.05 6.33 -53.1 6.66 -48 7 C-48 6.34 -48 5.68 -48 5 C-43.17182309 4.90532986 -38.73358866 4.94809141 -34 6 C-32.3337447 6.0370279 -30.66598681 6.04759962 -29 6 C-29 4.35 -29 2.7 -29 1 C-28.34 1 -27.68 1 -27 1 C-27 2.65 -27 4.3 -27 6 C-25.02 6 -23.04 6 -21 6 C-21 6.66 -21 7.32 -21 8 C-19.68 8 -18.36 8 -17 8 C-17 7.01 -17 6.02 -17 5 C-14.35652976 5.45316633 -12.08148874 5.96354451 -9.625 7.0625 C-6.32697773 8.2403651 -3.47484769 8.13626854 0 8 C0 5.36 0 2.72 0 0 Z " fill="#B23727" transform="translate(183,18)"/>
<path d="M0 0 C14.85 0.33 29.7 0.66 45 1 C41.43688534 3.672336 39.15414253 4.77263971 35 6 C35 4.68 35 3.36 35 2 C31.7 2 28.4 2 25 2 C25 2.99 25 3.98 25 5 C26.98 5 28.96 5 31 5 C31 5.99 31 6.98 31 8 C27.625 8.125 27.625 8.125 24 8 C23.34 7.34 22.68 6.68 22 6 C22 4.68 22 3.36 22 2 C19.69 2 17.38 2 15 2 C14.855625 2.804375 14.71125 3.60875 14.5625 4.4375 C14 7 14 7 13 8 C10.66055264 7.71269945 8.3260857 7.38063221 6 7 C6 8.98 6 10.96 6 13 C5.34 13 4.68 13 4 13 C3.96261719 12.22914063 3.92523438 11.45828125 3.88671875 10.6640625 C3.82097656 9.66117188 3.75523437 8.65828125 3.6875 7.625 C3.62949219 6.62726563 3.57148438 5.62953125 3.51171875 4.6015625 C3.34285156 3.74304688 3.17398438 2.88453125 3 2 C2.01 1.34 1.02 0.68 0 0 Z " fill="#94362B" transform="translate(147,162)"/>
<path d="M0 0 C1.94158017 3.51624755 2.18311068 5.9715651 2 10 C2.66 10 3.32 10 4 10 C4.09765625 16.15234375 4.09765625 16.15234375 4 18 C3.67 18.33 3.34 18.66 3 19 C3.02026933 22.11841704 3.10313024 25.21329372 3.2265625 28.328125 C3.28968802 30.26169843 3.35216751 32.19529304 3.4140625 34.12890625 C3.51713921 37.18832125 3.62489562 40.24732243 3.74414062 43.30615234 C3.85656745 46.25068713 3.94926026 49.19532495 4.0390625 52.140625 C4.09980453 53.50806854 4.09980453 53.50806854 4.16177368 54.90313721 C4.29632668 59.81689017 4.19758498 62.97773628 1 67 C-2.875 66.125 -2.875 66.125 -4 65 C-4.0935919 63.28134591 -4.11744611 61.55884256 -4.11352539 59.83764648 C-4.11344986 58.73658066 -4.11337433 57.63551483 -4.11329651 56.50108337 C-4.10813522 55.3031868 -4.10297394 54.10529022 -4.09765625 52.87109375 C-4.0962413 51.65172623 -4.09482635 50.4323587 -4.09336853 49.17604065 C-4.08774967 45.2631693 -4.07519396 41.35035419 -4.0625 37.4375 C-4.05748743 34.79231853 -4.0529241 32.14713617 -4.04882812 29.50195312 C-4.03777411 23.00128274 -4.02101764 16.50064539 -4 10 C-3.67 10 -3.34 10 -3 10 C-1.89396405 21.8035358 -1.88280381 33.53172588 -1.9375 45.375 C-1.94252844 47.28645715 -1.94708896 49.19791559 -1.95117188 51.109375 C-1.96206312 55.73961587 -1.97925249 60.36979323 -2 65 C-1.01 65 -0.02 65 1 65 C1.10867565 43.30834061 1.12525697 21.67017479 0 0 Z " fill="#BF3720" transform="translate(47,52)"/>
<path d="M0 0 C0.66 0 1.32 0 2 0 C2 6.6 2 13.2 2 20 C-0.97 20 -3.94 20 -7 20 C-9 18 -9 18 -9.265625 15.72265625 C-9.26046875 14.84480469 -9.2553125 13.96695313 -9.25 13.0625 C-9.25515625 12.18722656 -9.2603125 11.31195313 -9.265625 10.41015625 C-9 8 -9 8 -7 5 C-4.375 4.8125 -4.375 4.8125 -2 5 C-1.34 3.35 -0.68 1.7 0 0 Z " fill="#959DA2" transform="translate(144,106)"/>
<path d="M0 0 C6.49209749 -0.02554325 12.98418181 -0.04294734 19.47631836 -0.05493164 C21.68075037 -0.05993255 23.88517911 -0.06673542 26.08959961 -0.07543945 C29.27458508 -0.08769217 32.45952635 -0.09327089 35.64453125 -0.09765625 C37.10147148 -0.10539818 37.10147148 -0.10539818 38.58784485 -0.11329651 C45.10941083 -0.11382045 51.51620668 0.30441176 58 1 C57.67 1.66 57.34 2.32 57 3 C38.52 3 20.04 3 1 3 C0.67 2.01 0.34 1.02 0 0 Z " fill="#FC2201" transform="translate(73,156)"/>
<path d="M0 0 C0.33 4.95 0.66 9.9 1 15 C-0.32 14.67 -1.64 14.34 -3 14 C-3.33 14.33 -3.66 14.66 -4 15 C-6.4375 15.1875 -6.4375 15.1875 -9 15 C-11.40450178 12.59549822 -11.29609139 11.91766058 -11.3125 8.625 C-11.22758813 5.84972243 -11.01730243 4.04433748 -10 1.4375 C-6.78316135 -0.87460278 -3.88892873 -0.25501172 0 0 Z " fill="#9DA5AB" transform="translate(177,111)"/>
<path d="M0 0 C3.375 0.3125 3.375 0.3125 7 1 C9.47342266 4.71013399 9.38503486 6.61060262 9 11 C7.875 13.4375 7.875 13.4375 6 15 C2.87757843 15.45535315 0.93163039 15.49686954 -1.875 14 C-3.6721469 10.80507218 -3.5537868 7.5286159 -3 4 C-1.5 1.5 -1.5 1.5 0 0 Z " fill="#A07765" transform="translate(91,111)"/>
<path d="M0 0 C0.99 0 1.98 0 3 0 C3 1.65 3 3.3 3 5 C4.98 5 6.96 5 9 5 C9 5.66 9 6.32 9 7 C10.32 7 11.64 7 13 7 C13 6.01 13 5.02 13 4 C17.75 4.875 17.75 4.875 20 6 C22.0374763 6.22858114 24.08040303 6.41024278 26.125 6.5625 C27.76855469 6.68818359 27.76855469 6.68818359 29.4453125 6.81640625 C30.70988281 6.90728516 30.70988281 6.90728516 32 7 C31.67 8.65 31.34 10.3 31 12 C30.505 10.02 30.505 10.02 30 8 C29.40388916 8.00444122 28.80777832 8.00888245 28.19360352 8.01345825 C21.96389168 8.05786089 15.73422515 8.08793652 9.50439453 8.10986328 C7.18243584 8.11989264 4.86048968 8.1335194 2.53857422 8.15087891 C-0.80764877 8.17526201 -4.15370408 8.18651404 -7.5 8.1953125 C-8.5305249 8.20563507 -9.5610498 8.21595764 -10.62280273 8.22659302 C-16.44311844 8.22748981 -21.42041926 7.67968629 -27 6 C-24.01539511 5.0051317 -22.10055735 5 -19 5 C-17.7934375 4.7215625 -17.7934375 4.7215625 -16.5625 4.4375 C-13.48670288 3.91236391 -11.03502415 4.36476239 -8 5 C-8 5.66 -8 6.32 -8 7 C-6.68 7 -5.36 7 -4 7 C-4 6.34 -4 5.68 -4 5 C-2.68 5 -1.36 5 0 5 C0 3.35 0 1.7 0 0 Z " fill="#CD432E" transform="translate(169,151)"/>
<path d="M0 0 C0.99 0 1.98 0 3 0 C3 1.65 3 3.3 3 5 C3.66 5 4.32 5 5 5 C5 3.35 5 1.7 5 0 C5.99 0 6.98 0 8 0 C8 1.65 8 3.3 8 5 C28.79 5 49.58 5 71 5 C71.495 5.99 71.495 5.99 72 7 C43.98294407 7.14429194 16.00637984 6.77985624 -12 6 C-12 5.67 -12 5.34 -12 5 C-8.04 5 -4.08 5 0 5 C0 3.35 0 1.7 0 0 Z " fill="#C2412F" transform="translate(43,18)"/>
<path d="M0 0 C3.96 0 7.92 0 12 0 C13.44207941 2.88415883 13.09394887 5.41721528 13.0625 8.625 C13.05347656 9.81351563 13.04445313 11.00203125 13.03515625 12.2265625 C13.02355469 13.14179687 13.01195313 14.05703125 13 15 C12.01 15 11.02 15 10 15 C10 11.04 10 7.08 10 3 C9.34 3 8.68 3 8 3 C8 6.96 8 10.92 8 15 C7.01 15 6.02 15 5 15 C5 11.04 5 7.08 5 3 C4.34 3 3.68 3 3 3 C3 6.63 3 10.26 3 14 C2.01 14.33 1.02 14.66 0 15 C0 10.05 0 5.1 0 0 Z " fill="#A27B68" transform="translate(103,111)"/>
<path d="M0 0 C0.69029297 -0.01289063 1.38058594 -0.02578125 2.09179688 -0.0390625 C5.77630186 -0.04635133 7.28575215 0.08633477 10.4375 2.1875 C9.1175 2.5175 7.7975 2.8475 6.4375 3.1875 C6.47875 3.97125 6.52 4.755 6.5625 5.5625 C6.4375 8.1875 6.4375 8.1875 4.4375 10.1875 C1.74910615 10.45741906 -0.85391936 10.27487357 -3.5625 10.1875 C-3.8925 8.8675 -4.2225 7.5475 -4.5625 6.1875 C-1.9225 6.5175 0.7175 6.8475 3.4375 7.1875 C2.57301642 4.93176056 2.57301642 4.93176056 -0.0625 4.0625 C-4.3181796 2.9985801 -8.20394777 3.01315791 -12.5625 3.1875 C-11.5725 3.8475 -10.5825 4.5075 -9.5625 5.1875 C-9.5625 6.1775 -9.5625 7.1675 -9.5625 8.1875 C-13.59571763 6.96815514 -17.10519479 5.62795073 -20.5625 3.1875 C-20.5625 2.5275 -20.5625 1.8675 -20.5625 1.1875 C-13.71134015 0.46086183 -6.88675052 0.06277804 0 0 Z " fill="#A62D1D" transform="translate(77.5625,27.8125)"/>
<path d="M0 0 C21.45 0.33 42.9 0.66 65 1 C65 1.33 65 1.66 65 2 C50.81 2 36.62 2 22 2 C22 4.64 22 7.28 22 10 C21.01 10 20.02 10 19 10 C19 7.36 19 4.72 19 2 C14.71 1.67 10.42 1.34 6 1 C6.33 2.65 6.66 4.3 7 6 C9.31 6.33 11.62 6.66 14 7 C13.67 7.99 13.34 8.98 13 10 C6.6217765 10.36103152 6.6217765 10.36103152 4.0625 8.875 C2.55515137 6.214973 2.80013747 3.99793795 3 1 C2.01 0.67 1.02 0.34 0 0 Z " fill="#DE3117" transform="translate(85,28)"/>
<path d="M0 0 C0.66 0 1.32 0 2 0 C2.88873597 3.09950623 3.18543782 5.98504367 3.31640625 9.203125 C3.35830078 10.1828125 3.40019531 11.1625 3.44335938 12.171875 C3.48267578 13.18765625 3.52199219 14.2034375 3.5625 15.25 C3.60568359 16.28125 3.64886719 17.3125 3.69335938 18.375 C3.79925682 20.9165387 3.90133443 23.45817196 4 26 C3.01 26 2.02 26 1 26 C0.67 24.68 0.34 23.36 0 22 C-0.66 24.31 -1.32 26.62 -2 29 C-2.33 29 -2.66 29 -3 29 C-3 21.41 -3 13.82 -3 6 C-2.34 6 -1.68 6 -1 6 C-0.67 4.02 -0.34 2.04 0 0 Z " fill="#1C1D1F" transform="translate(198,88)"/>
<path d="M0 0 C2.29013653 3.4352048 2.17842973 4.985331 2 9 C-0.64 9.33 -3.28 9.66 -6 10 C-6 10.66 -6 11.32 -6 12 C-3.36 11.67 -0.72 11.34 2 11 C2 11.99 2 12.98 2 14 C-0.84083641 15.42041821 -2.85477278 15.31452272 -6 15 C-8.375 13.4375 -8.375 13.4375 -10 11 C-10.56783945 7.02512383 -10.62340519 4.93510779 -8.375 1.5625 C-5.33544906 -0.43720456 -3.57075009 -0.54337501 0 0 Z " fill="#A37B66" transform="translate(113,67)"/>
<path d="M0 0 C1.8125 1.125 1.8125 1.125 3 3 C3.1875 6.1875 3.1875 6.1875 3 9 C0.03 9 -2.94 9 -6 9 C-5.67 9.66 -5.34 10.32 -5 11 C-2.69 11 -0.38 11 2 11 C2 11.99 2 12.98 2 14 C1 15 1 15 -1.8125 15.3125 C-5 15 -5 15 -7.375 13.4375 C-9.62340519 10.06489221 -9.56783945 7.97487617 -9 4 C-6.4639774 0.33685625 -4.42995618 -0.79512034 0 0 Z " fill="#A27A66" transform="translate(81,67)"/>
<path d="M0 0 C0.88772095 -0.00953201 1.77544189 -0.01906403 2.69006348 -0.02888489 C3.64119019 -0.02797348 4.59231689 -0.02706207 5.57226562 -0.02612305 C6.55594116 -0.03040817 7.5396167 -0.0346933 8.55310059 -0.03910828 C10.63093293 -0.04484615 12.70878536 -0.04535584 14.78662109 -0.04101562 C17.96681907 -0.03785343 21.14608873 -0.06132963 24.32617188 -0.08666992 C26.34570195 -0.08894272 28.36523453 -0.0896465 30.38476562 -0.08862305 C31.81145569 -0.10243767 31.81145569 -0.10243767 33.26696777 -0.11653137 C34.15468872 -0.11030258 35.04240967 -0.10407379 35.95703125 -0.09765625 C36.73550415 -0.09828568 37.51397705 -0.0989151 38.31604004 -0.0995636 C40.47851562 0.2746582 40.47851562 0.2746582 44.47851562 3.2746582 C26.98851562 2.9446582 9.49851562 2.6146582 -8.52148438 2.2746582 C-4.8752005 0.45151626 -3.7890686 0.0224256 0 0 Z " fill="#472824" transform="translate(59.521484375,20.725341796875)"/>
<path d="M0 0 C0.99 0.33 1.98 0.66 3 1 C3 4.63 3 8.26 3 12 C4.32 11.67 5.64 11.34 7 11 C7.33 7.37 7.66 3.74 8 0 C8.99 0 9.98 0 11 0 C11 4.95 11 9.9 11 15 C4.1640625 15.1953125 4.1640625 15.1953125 2 15 C0 13 0 13 -0.1953125 9.9609375 C-0.17210937 8.77757813 -0.14890625 7.59421875 -0.125 6.375 C-0.10695312 5.18648438 -0.08890625 3.99796875 -0.0703125 2.7734375 C-0.04710937 1.85820313 -0.02390625 0.94296875 0 0 Z " fill="#A0A8AD" transform="translate(151,111)"/>
<path d="M0 0 C0 5.28 0 10.56 0 16 C1.32 16 2.64 16 4 16 C4 16.99 4 17.98 4 19 C0.04 19 -3.92 19 -8 19 C-8 18.01 -8 17.02 -8 16 C-6.35 16 -4.7 16 -3 16 C-3.33 12.04 -3.66 8.08 -4 4 C-5.32 4.33 -6.64 4.66 -8 5 C-8 4.01 -8 3.02 -8 2 C-5 0 -5 0 0 0 Z " fill="#349096" transform="translate(174,63)"/>
<path d="M0 0 C0.66 1.32 1.32 2.64 2 4 C-0.64 3.67 -3.28 3.34 -6 3 C-4.37633534 6.24732932 -1.24612161 6.70155136 2 8 C2.125 10.375 2.125 10.375 2 13 C0 15 0 15 -3.5 15.1875 C-7 15 -7 15 -9 14 C-9 13.01 -9 12.02 -9 11 C-6.36 11.33 -3.72 11.66 -1 12 C-3.36620011 9.38472619 -5.942048 7.73559438 -9 6 C-8.625 3.5625 -8.625 3.5625 -8 1 C-5.29120665 -0.35439668 -2.99066732 -0.06501451 0 0 Z " fill="#A87E6A" transform="translate(66,67)"/>
<path d="M0 0 C2.3125 -0.1875 2.3125 -0.1875 5 0 C6.01117213 0.98870164 7.00975541 1.99033885 8 3 C10.03232242 4.19599068 10.03232242 4.19599068 12.1875 5.1875 C12.90292969 5.53167969 13.61835937 5.87585938 14.35546875 6.23046875 C15.16951172 6.61138672 15.16951172 6.61138672 16 7 C16.66 4.69 17.32 2.38 18 0 C19.32 0.33 20.64 0.66 22 1 C20.35 4.96 18.7 8.92 17 13 C16.01 13 15.02 13 14 13 C13.67 12.01 13.34 11.02 13 10 C10.82422337 8.65061396 8.71387645 7.46148243 6.4375 6.3125 C5.51420898 5.83200195 5.51420898 5.83200195 4.57226562 5.34179688 C3.0526445 4.55253629 1.52688189 3.77512085 0 3 C0 2.01 0 1.02 0 0 Z " fill="#A6ADB3" transform="translate(57,160)"/>
<path d="M0 0 C0.99 0.33 1.98 0.66 3 1 C3 2.32 3 3.64 3 5 C4.65 5 6.3 5 8 5 C8 5.99 8 6.98 8 8 C6.35 8 4.7 8 3 8 C3 10.64 3 13.28 3 16 C4.98 16 6.96 16 9 16 C9 16.99 9 17.98 9 19 C5.625 19.125 5.625 19.125 2 19 C0 17 0 17 -0.1953125 14.8359375 C-0.17210937 14.02382812 -0.14890625 13.21171875 -0.125 12.375 C-0.10695312 11.55773437 -0.08890625 10.74046875 -0.0703125 9.8984375 C-0.03550781 8.95871094 -0.03550781 8.95871094 0 8 C-1.32 8 -2.64 8 -4 8 C-4 7.01 -4 6.02 -4 5 C-2.68 5 -1.36 5 0 5 C0 3.35 0 1.7 0 0 Z " fill="#9B7663" transform="translate(138,63)"/>
<path d="M0 0 C0.77943466 0.00222061 1.55886932 0.00444122 2.36192322 0.00672913 C3.68317955 0.00684242 3.68317955 0.00684242 5.03112793 0.00695801 C5.98841293 0.01211929 6.94569794 0.01728058 7.93199158 0.02259827 C9.39480812 0.02472069 9.39480812 0.02472069 10.88717651 0.02688599 C14.01542675 0.03250319 17.14360656 0.04505859 20.27183533 0.05775452 C22.38706867 0.0627673 24.50230313 0.06733059 26.61753845 0.07142639 C31.81482829 0.0824782 37.01207678 0.09923305 42.20933533 0.12025452 C42.20933533 0.45025452 42.20933533 0.78025452 42.20933533 1.12025452 C28.01933533 1.12025452 13.82933533 1.12025452 -0.79066467 1.12025452 C-0.46066467 1.78025452 -0.13066467 2.44025452 0.20933533 3.12025452 C18.52433533 3.61525452 18.52433533 3.61525452 37.20933533 4.12025452 C37.20933533 4.45025452 37.20933533 4.78025452 37.20933533 5.12025452 C24.25087977 6.82531446 11.21339776 5.76237651 -1.79066467 5.12025452 C-2.35316467 3.18275452 -2.35316467 3.18275452 -2.79066467 1.12025452 C-1.79066467 0.12025452 -1.79066467 0.12025452 0 0 Z " fill="#D73016" transform="translate(31.790664672851563,23.879745483398438)"/>
<path d="M0 0 C1.134375 0.020625 2.26875 0.04125 3.4375 0.0625 C3.4375 0.7225 3.4375 1.3825 3.4375 2.0625 C1.7875 2.3925 0.1375 2.7225 -1.5625 3.0625 C-1.8925 4.3825 -2.2225 5.7025 -2.5625 7.0625 C-0.5825 7.0625 1.3975 7.0625 3.4375 7.0625 C3.4375 7.7225 3.4375 8.3825 3.4375 9.0625 C1.4575 9.0625 -0.5225 9.0625 -2.5625 9.0625 C-2.5625 12.3625 -2.5625 15.6625 -2.5625 19.0625 C-3.5525 19.0625 -4.5425 19.0625 -5.5625 19.0625 C-5.5625 15.7625 -5.5625 12.4625 -5.5625 9.0625 C-6.8825 9.0625 -8.2025 9.0625 -9.5625 9.0625 C-9.5625 8.0725 -9.5625 7.0825 -9.5625 6.0625 C-8.2425 6.0625 -6.9225 6.0625 -5.5625 6.0625 C-5.418125 5.258125 -5.27375 4.45375 -5.125 3.625 C-4.26443625 -0.29534596 -4.23242358 0.07425305 0 0 Z " fill="#B0816C" transform="translate(65.5625,106.9375)"/>
<path d="M0 0 C3.96 0 7.92 0 12 0 C12.33 2.97 12.66 5.94 13 9 C15.31 9.33 17.62 9.66 20 10 C20 10.33 20 10.66 20 11 C17.36 11.33 14.72 11.66 12 12 C11.67 12.99 11.34 13.98 11 15 C10.34 15 9.68 15 9 15 C8.67 13.68 8.34 12.36 8 11 C7.01 11.495 7.01 11.495 6 12 C6.33 9.36 6.66 6.72 7 4 C4.69 3.01 2.38 2.02 0 1 C0 0.67 0 0.34 0 0 Z " fill="#3D3D3E" transform="translate(92,160)"/>
<path d="M0 0 C6.67113423 -0.02548153 13.34225576 -0.0429219 20.01342773 -0.05493164 C22.28003407 -0.05994161 24.5466372 -0.06675141 26.81323242 -0.07543945 C30.0825276 -0.08765172 33.35177982 -0.09326182 36.62109375 -0.09765625 C38.12632851 -0.10539818 38.12632851 -0.10539818 39.66197205 -0.11329651 C45.51863384 -0.11375715 51.20996203 0.0695565 57 1 C57.495 1.99 57.495 1.99 58 3 C51.4 3 44.8 3 38 3 C38 2.34 38 1.68 38 1 C25.46 1 12.92 1 0 1 C0 0.67 0 0.34 0 0 Z " fill="#562E28" transform="translate(82,153)"/>
<path d="M0 0 C1.65 0 3.3 0 5 0 C6.01894076 5.84888043 6.11798453 11.50919169 6.0625 17.4375 C6.05798828 18.35982422 6.05347656 19.28214844 6.04882812 20.23242188 C6.03713938 22.48835048 6.02075455 24.74413967 6 27 C5.67 27 5.34 27 5 27 C5 21.39 5 15.78 5 10 C4.34 10 3.68 10 3 10 C3 15.28 3 20.56 3 26 C2.67 26 2.34 26 2 26 C1.93941406 25.04738281 1.87882812 24.09476563 1.81640625 23.11328125 C1.73261719 21.85902344 1.64882813 20.60476562 1.5625 19.3125 C1.48128906 18.07113281 1.40007813 16.82976562 1.31640625 15.55078125 C1.05456 12.61228449 0.59192717 9.88071225 0 7 C-0.03824623 4.66698014 -0.04574284 2.33288492 0 0 Z " fill="#EA280B" transform="translate(42,50)"/>
<path d="M0 0 C0.66 1.32 1.32 2.64 2 4 C0.865625 3.979375 -0.26875 3.95875 -1.4375 3.9375 C-4.81575674 3.58422523 -4.81575674 3.58422523 -6 5 C-6.04092937 7.33297433 -6.04241723 9.66705225 -6 12 C-3.69 12 -1.38 12 1 12 C1 12.99 1 13.98 1 15 C-5.25 15.48076923 -5.25 15.48076923 -8.4375 13.4375 C-10.60396028 10.05782196 -10.56288002 7.94016013 -10 4 C-7.21083461 -0.18374808 -4.85662887 -0.44151172 0 0 Z " fill="#A9816D" transform="translate(129,67)"/>
<path d="M0 0 C0.66 0 1.32 0 2 0 C2 1.65 2 3.3 2 5 C3.98 5 5.96 5 8 5 C8 5.66 8 6.32 8 7 C2.98291378 7.02480683 -2.03413635 7.04291052 -7.05126953 7.05493164 C-8.75635399 7.05994564 -10.46143418 7.0667585 -12.16650391 7.07543945 C-14.62403419 7.08763385 -17.08150738 7.09325775 -19.5390625 7.09765625 C-20.29555084 7.10281754 -21.05203918 7.10797882 -21.83145142 7.11329651 C-25.99682563 7.1137333 -29.91432259 6.81657038 -34 6 C-34 5.67 -34 5.34 -34 5 C-29.05 5.33 -24.1 5.66 -19 6 C-19 5.34 -19 4.68 -19 4 C-14.17182309 3.90532986 -9.73358866 3.94809141 -5 5 C-3.3337447 5.0370279 -1.66598681 5.04759962 0 5 C0 3.35 0 1.7 0 0 Z " fill="#C57870" transform="translate(154,19)"/>
<path d="M0 0 C2.31 0 4.62 0 7 0 C7 5.28 7 10.56 7 16 C8.98 16 10.96 16 13 16 C13 16.99 13 17.98 13 19 C9.625 19.125 9.625 19.125 6 19 C4 17 4 17 3.8046875 13.5234375 C3.81798507 12.14049032 3.84183768 10.75761346 3.875 9.375 C3.88402344 8.66859375 3.89304688 7.9621875 3.90234375 7.234375 C3.92592397 5.48943902 3.96179539 3.74467705 4 2 C2.68 2 1.36 2 0 2 C0 1.34 0 0.68 0 0 Z " fill="#96A0A5" transform="translate(181,107)"/>
<path d="M0 0 C0.33 0 0.66 0 1 0 C1 5.28 1 10.56 1 16 C-5.8359375 16.1953125 -5.8359375 16.1953125 -8 16 C-10 14 -10 14 -10.1953125 12.0546875 C-10.13020833 10.03645833 -10.06510417 8.01822917 -10 6 C-9.34 5.67 -8.68 5.34 -8 5 C-7.67 7.31 -7.34 9.62 -7 12 C-5.68 12 -4.36 12 -3 12 C-2.95101562 11.38511719 -2.90203125 10.77023438 -2.8515625 10.13671875 C-2.77679688 9.32847656 -2.70203125 8.52023438 -2.625 7.6875 C-2.55539063 6.88699219 -2.48578125 6.08648437 -2.4140625 5.26171875 C-2 3 -2 3 0 0 Z " fill="#A3ABB0" transform="translate(145,110)"/>
<path d="M0 0 C-0.33 2.64 -0.66 5.28 -1 8 C-1.66 8 -2.32 8 -3 8 C-3.33 6.68 -3.66 5.36 -4 4 C-4.99 4.33 -5.98 4.66 -7 5 C-7.11320856 10.08303686 -7.11320856 10.08303686 -6 15 C-9.875 14.125 -9.875 14.125 -11 13 C-11.42508628 8.9698551 -11.48135118 5.23346239 -10 1.4375 C-6.78316135 -0.87460278 -3.88892873 -0.25501172 0 0 Z " fill="#A3AAAF" transform="translate(177,111)"/>
<path d="M0 0 C4.29 0.33 8.58 0.66 13 1 C13 2.65 13 4.3 13 6 C11.02 6.99 11.02 6.99 9 8 C9 7.34 9 6.68 9 6 C7.700625 6.020625 6.40125 6.04125 5.0625 6.0625 C3.70834367 6.08399454 2.35243917 6.07148199 1 6 C0.67 5.67 0.34 5.34 0 5 C0 3.35 0 1.7 0 0 Z " fill="#3B3333" transform="translate(91,29)"/>
<path d="M0 0 C6.8359375 -0.1953125 6.8359375 -0.1953125 9 0 C11 2 11 2 11.125 4.625 C11.08375 5.40875 11.0425 6.1925 11 7 C10.34 7 9.68 7 9 7 C8.67 6.01 8.34 5.02 8 4 C6.68 4 5.36 4 4 4 C3.67 7.63 3.34 11.26 3 15 C2.01 15 1.02 15 0 15 C0 10.05 0 5.1 0 0 Z " fill="#A67D6A" transform="translate(73,111)"/>
<path d="M0 0 C0.33 0.66 0.66 1.32 1 2 C1.99 2 2.98 2 4 2 C5.27545437 4.55090873 5.27572804 6.52665846 5.375 9.375 C5.42398438 10.33148438 5.47296875 11.28796875 5.5234375 12.2734375 C5 15 5 15 0 19 C0 12.73 0 6.46 0 0 Z " fill="#354145" transform="translate(146,107)"/>
<path d="M0 0 C4.14581887 -0.02886751 8.29161216 -0.04675327 12.4375 -0.0625 C14.21350586 -0.07506836 14.21350586 -0.07506836 16.02539062 -0.08789062 C17.15009766 -0.09111328 18.27480469 -0.09433594 19.43359375 -0.09765625 C20.47572021 -0.10289307 21.51784668 -0.10812988 22.59155273 -0.11352539 C25 0 25 0 26 1 C28.01594582 1.23427778 30.038474 1.41336124 32.0625 1.5625 C33.16722656 1.64628906 34.27195313 1.73007812 35.41015625 1.81640625 C36.26480469 1.87699219 37.11945313 1.93757813 38 2 C38 2.33 38 2.66 38 3 C36.70582153 2.98428955 36.70582153 2.98428955 35.38549805 2.96826172 C32.18189479 2.93416017 28.9783841 2.90909143 25.7746582 2.89013672 C24.38855952 2.8800843 23.00248201 2.8664403 21.61645508 2.84912109 C19.6233025 2.82484048 17.62999467 2.81457969 15.63671875 2.8046875 C14.43748779 2.79421387 13.23825684 2.78374023 12.00268555 2.77294922 C8.81837173 2.76691928 8.81837173 2.76691928 6 5 C5.01 5 4.02 5 3 5 C3 4.01 3 3.02 3 2 C2.01 1.34 1.02 0.68 0 0 Z " fill="#E72A0D" transform="translate(163,31)"/>
<path d="M0 0 C1.77049689 -0.05410687 3.54146849 -0.09284119 5.3125 -0.125 C6.29863281 -0.14820313 7.28476563 -0.17140625 8.30078125 -0.1953125 C11 0 11 0 14 2 C12.68 2.33 11.36 2.66 10 3 C10 4.32 10 5.64 10 7 C3.9453125 7.1953125 3.9453125 7.1953125 2 7 C0 5 0 5 -0.125 2.375 C-0.08375 1.59125 -0.0425 0.8075 0 0 Z " fill="#3D3636" transform="translate(106,160)"/>
<path d="M0 0 C0.99 0 1.98 0 3 0 C3.33 0.99 3.66 1.98 4 3 C6.01508358 3.73323796 6.01508358 3.73323796 8 4 C8.33 2.68 8.66 1.36 9 0 C9.66 0 10.32 0 11 0 C11.125 2.375 11.125 2.375 11 5 C9 7 9 7 5.875 7.125 C4.92625 7.08375 3.9775 7.0425 3 7 C3 8.65 3 10.3 3 12 C2.01 12 1.02 12 0 12 C0 8.04 0 4.08 0 0 Z " fill="#A7A7AB" transform="translate(135,31)"/>
<path d="M0 0 C1.46015291 0.28241641 2.91809793 0.57626614 4.375 0.875 C5.18710938 1.03742188 5.99921875 1.19984375 6.8359375 1.3671875 C9 2 9 2 11 4 C10.44444444 8.55555556 10.44444444 8.55555556 9 10 C6.32941149 10.14115161 3.67567762 10.04247107 1 10 C0.34 8.68 -0.32 7.36 -1 6 C1.97 6.33 4.94 6.66 8 7 C6.37633534 3.75267068 3.24612161 3.29844864 0 2 C0 1.34 0 0.68 0 0 Z " fill="#A7A3A6" transform="translate(89,160)"/>
<path d="M0 0 C0.99 0 1.98 0 3 0 C3.33 2.31 3.66 4.62 4 7 C4.66 7 5.32 7 6 7 C6 12.28 6 17.56 6 23 C5.34 23.33 4.68 23.66 4 24 C3.96261719 23.20335938 3.92523438 22.40671875 3.88671875 21.5859375 C3.51431828 15.58371814 2.92022561 11.3325859 0 6 C-0.1875 2.625 -0.1875 2.625 0 0 Z " fill="#FA2204" transform="translate(201,82)"/>
<path d="M0 0 C6.28818316 0.53487012 12.59860682 0.65129789 18.9050293 0.83618164 C20.3002209 0.87950251 21.69540332 0.92312042 23.09057617 0.96704102 C26.46614889 1.07216266 29.84178323 1.17431041 33.2175293 1.27368164 C33.2175293 1.60368164 33.2175293 1.93368164 33.2175293 2.27368164 C27.74064454 2.2986464 22.26379388 2.31666536 16.78686523 2.32861328 C14.92878644 2.3336012 13.07071148 2.34039392 11.21264648 2.34912109 C1.1679559 2.39507366 -8.78549534 2.41578843 -18.7824707 1.27368164 C-18.7824707 0.94368164 -18.7824707 0.61368164 -18.7824707 0.27368164 C-17.17999878 0.07221032 -15.57528891 -0.11144754 -13.9699707 -0.28881836 C-13.07665039 -0.39323242 -12.18333008 -0.49764648 -11.26293945 -0.60522461 C-7.43400319 -0.73844237 -3.80649176 -0.38223239 0 0 Z " fill="#DF2B10" transform="translate(122.782470703125,24.726318359375)"/>
<path d="M0 0 C3.94727588 -0.17942163 6.5980513 -0.09350689 10 2 C10.125 4.375 10.125 4.375 10 7 C8 9 8 9 6.0546875 9.1953125 C4.03645833 9.13020833 2.01822917 9.06510417 0 9 C-0.33 7.68 -0.66 6.36 -1 5 C1.64 5.33 4.28 5.66 7 6 C6.10664203 3.64214682 6.10664203 3.64214682 2.9375 2.875 C1.968125 2.58625 0.99875 2.2975 0 2 C0 1.34 0 0.68 0 0 Z " fill="#A4ACB1" transform="translate(74,29)"/>
<path d="M0 0 C1.34296402 2.01444603 2.67618973 4.03541552 4 6.0625 C5.84649262 8.97085303 5.84649262 8.97085303 8 11 C7.625 14.625 7.625 14.625 7 18 C5.02 18.66 3.04 19.32 1 20 C1.20625 19.4225 1.4125 18.845 1.625 18.25 C2.08661261 15.48032433 1.42944945 14.35438733 0 12 C1.65 12 3.3 12 5 12 C4.2575 11.3503125 4.2575 11.3503125 3.5 10.6875 C2 9 2 9 2 6 C1.34 6 0.68 6 0 6 C0 4.02 0 2.04 0 0 Z " fill="#CF311B" transform="translate(213,112)"/>
<path d="M0 0 C1.98 0 3.96 0 6 0 C6 5.28 6 10.56 6 16 C7.98 16 9.96 16 12 16 C12 16.99 12 17.98 12 19 C9.66705225 19.04241723 7.33297433 19.04092937 5 19 C4 18 4 18 3.90234375 14.40234375 C3.9090178 12.91403133 3.92097817 11.42573568 3.9375 9.9375 C3.94201172 9.17888672 3.94652344 8.42027344 3.95117188 7.63867188 C3.9629932 5.75908129 3.98092922 3.87953101 4 2 C2.68 2 1.36 2 0 2 C0 1.34 0 0.68 0 0 Z " fill="#B58871" transform="translate(88,63)"/>
<path d="M0 0 C2 1 2 1 3.1171875 3.10546875 C4.19172254 6.62861239 4.19373791 9.63502193 4.125 13.3125 C4.10695312 14.56675781 4.08890625 15.82101563 4.0703125 17.11328125 C4.04710937 18.06589844 4.02390625 19.01851562 4 20 C4.66 20 5.32 20 6 20 C6 21.32 6 22.64 6 24 C6.66 24 7.32 24 8 24 C8.66 26.64 9.32 29.28 10 32 C8.5 30.6875 8.5 30.6875 7 29 C7 28.01 7 27.02 7 26 C5.68 26 4.36 26 3 26 C2.91697632 25.13834229 2.91697632 25.13834229 2.83227539 24.25927734 C2.5778124 21.63097381 2.32018189 19.00298982 2.0625 16.375 C1.93198242 15.01955078 1.93198242 15.01955078 1.79882812 13.63671875 C1.34748614 9.05643346 0.8352958 4.5301628 0 0 Z " fill="#D23016" transform="translate(201,88)"/>
<path d="M0 0 C4.29 0 8.58 0 13 0 C12 5 12 5 11 7 C6.96678237 5.78065514 3.45730521 4.44045073 0 2 C0 1.34 0 0.68 0 0 Z " fill="#4C3331" transform="translate(62,160)"/>
<path d="M0 0 C0.99 0 1.98 0 3 0 C3 2.97 3 5.94 3 9 C1.35 8.67 -0.3 8.34 -2 8 C-2.33 10.64 -2.66 13.28 -3 16 C-3.33 16 -3.66 16 -4 16 C-4 11.38 -4 6.76 -4 2 C-2.68 2 -1.36 2 0 2 C0 1.34 0 0.68 0 0 Z " fill="#192323" transform="translate(183,62)"/>
<path d="M0 0 C0.99 0 1.98 0 3 0 C3.33 0.66 3.66 1.32 4 2 C4.99 2 5.98 2 7 2 C7.33 1.34 7.66 0.68 8 0 C8.99 0 9.98 0 11 0 C10.125 4.875 10.125 4.875 9 6 C6.66055264 5.71269945 4.3260857 5.38063221 2 5 C2 6.98 2 8.96 2 11 C1.34 11 0.68 11 0 11 C0 7.37 0 3.74 0 0 Z " fill="#ABABB1" transform="translate(151,164)"/>
<path d="M0 0 C0 0.66 0 1.32 0 2 C-15.84 1.67 -31.68 1.34 -48 1 C-48 0.67 -48 0.34 -48 0 C-41.96786287 -0.16790838 -35.93559106 -0.32843704 -29.90307617 -0.48217773 C-27.85159034 -0.53549465 -25.80015557 -0.59081563 -23.7487793 -0.64819336 C-20.79747524 -0.73039243 -17.8460617 -0.80534507 -14.89453125 -0.87890625 C-13.97976517 -0.90594131 -13.06499908 -0.93297638 -12.12251282 -0.96083069 C-7.93132881 -1.05871074 -4.08674126 -1.10241794 0 0 Z " fill="#E4290D" transform="translate(199,162)"/>
<path d="M0 0 C0.66 0 1.32 0 2 0 C2 2.97 2 5.94 2 9 C2.74685059 8.98952637 3.49370117 8.97905273 4.26318359 8.96826172 C7.63375508 8.9267923 11.004273 8.90070271 14.375 8.875 C15.550625 8.85824219 16.72625 8.84148438 17.9375 8.82421875 C19.61972656 8.81455078 19.61972656 8.81455078 21.3359375 8.8046875 C22.37282715 8.79421387 23.4097168 8.78374023 24.47802734 8.77294922 C27 9 27 9 29 11 C24.76376458 10.90653687 20.52809149 10.80046087 16.29248047 10.68261719 C14.8511626 10.64430326 13.40974832 10.60945457 11.96826172 10.578125 C9.89776114 10.53252554 7.82792567 10.47452556 5.7578125 10.4140625 C4.5114502 10.3826416 3.26508789 10.3512207 1.98095703 10.31884766 C-1 10 -1 10 -3 8 C-2.01 8 -1.02 8 0 8 C0 5.36 0 2.72 0 0 Z " fill="#4B392A" transform="translate(189,18)"/>
<path d="M0 0 C0.99 0 1.98 0 3 0 C3 1.65 3 3.3 3 5 C3.66 5 4.32 5 5 5 C5 3.35 5 1.7 5 0 C5.99 0 6.98 0 8 0 C8 1.65 8 3.3 8 5 C10.31 5 12.62 5 15 5 C15 5.33 15 5.66 15 6 C6.09 6 -2.82 6 -12 6 C-12 5.67 -12 5.34 -12 5 C-8.04 5 -4.08 5 0 5 C0 3.35 0 1.7 0 0 Z " fill="#895B44" transform="translate(43,18)"/>
<path d="M0 0 C6.81598387 -0.33278764 11.92122066 -0.24201565 18 3 C18 3.66 18 4.32 18 5 C15.36 4.67 12.72 4.34 10 4 C9.67 4.66 9.34 5.32 9 6 C8.34 5.34 7.68 4.68 7 4 C6.01 4.495 6.01 4.495 5 5 C3.33333333 3.33333333 1.66666667 1.66666667 0 0 Z " fill="#373C3F" transform="translate(63,30)"/>
<path d="M0 0 C0.99 0 1.98 0 3 0 C3 1.65 3 3.3 3 5 C4.32 5 5.64 5 7 5 C7 5.99 7 6.98 7 8 C3.04 8 -0.92 8 -5 8 C-5 7.01 -5 6.02 -5 5 C-3.35 5 -1.7 5 0 5 C0 3.35 0 1.7 0 0 Z " fill="#A6A7AC" transform="translate(140,162)"/>
<path d="M0 0 C2.475 0.99 2.475 0.99 5 2 C5 3.65 5 5.3 5 7 C12.59 7 20.18 7 28 7 C28 7.33 28 7.66 28 8 C19.09 8 10.18 8 1 8 C0.67 5.36 0.34 2.72 0 0 Z " fill="#32221D" transform="translate(50,146)"/>
<path d="M0 0 C0.99 0 1.98 0 3 0 C3 1.32 3 2.64 3 4 C4.65 4 6.3 4 8 4 C8 4.99 8 5.98 8 7 C3.71 7 -0.58 7 -5 7 C-4.67 6.01 -4.34 5.02 -4 4 C-2.68 4 -1.36 4 0 4 C0 2.68 0 1.36 0 0 Z " fill="#A5A6AA" transform="translate(124,31)"/>
<path d="M0 0 C0.99 0 1.98 0 3 0 C3 2.64 3 5.28 3 8 C-1.29 8 -5.58 8 -10 8 C-10 7.67 -10 7.34 -10 7 C-8.02 7 -6.04 7 -4 7 C-3.67 5.35 -3.34 3.7 -3 2 C-2.34 2 -1.68 2 -1 2 C-0.67 1.34 -0.34 0.68 0 0 Z " fill="#3D2117" transform="translate(199,150)"/>
<path d="M0 0 C1.32 0 2.64 0 4 0 C5.35439668 2.70879335 5.06501451 5.00933268 5 8 C3.34385343 8.38218767 1.67542976 8.71395102 0 9 C-1 8 -1 8 -1.125 4.5 C-1 1 -1 1 0 0 Z " fill="#41352B" transform="translate(92,114)"/>
<path d="M0 0 C-0.33 1.98 -0.66 3.96 -1 6 C-2.99954746 6.04254356 -5.00041636 6.04080783 -7 6 C-7.33 5.67 -7.66 5.34 -8 5 C-8.33 6.98 -8.66 8.96 -9 11 C-9.33 11 -9.66 11 -10 11 C-10.48275862 4.72413793 -10.48275862 4.72413793 -8.375 1.5625 C-5.397402 -0.39644605 -3.49644963 -0.31785906 0 0 Z " fill="#806252" transform="translate(113,67)"/>
<path d="M0 0 C2 2 2 2 2.125 4.625 C2.08375 5.40875 2.0425 6.1925 2 7 C1.01 7.495 1.01 7.495 0 8 C0 6.35 0 4.7 0 3 C-5.61 2.67 -11.22 2.34 -17 2 C-17 1.67 -17 1.34 -17 1 C-5.32115869 -2.86523929 -5.32115869 -2.86523929 0 0 Z " fill="#451812" transform="translate(230,28)"/>
<path d="M0 0 C0.33 0 0.66 0 1 0 C1 4.62 1 9.24 1 14 C2.98 13.67 4.96 13.34 7 13 C8.43637698 11.04836882 8.43637698 11.04836882 9 9 C9.12117188 9.56589844 9.24234375 10.13179687 9.3671875 10.71484375 C9.53476563 11.44832031 9.70234375 12.18179688 9.875 12.9375 C10.11863281 14.03384766 10.11863281 14.03384766 10.3671875 15.15234375 C10.82961523 17.20700294 10.82961523 17.20700294 13 18 C10.69 18 8.38 18 6 18 C6 17.01 6 16.02 6 15 C4.02 15 2.04 15 0 15 C0 10.05 0 5.1 0 0 Z " fill="#423B35" transform="translate(94,64)"/>
<path d="M0 0 C0.66 0 1.32 0 2 0 C2.66 1.98 3.32 3.96 4 6 C6.31 6.33 8.62 6.66 11 7 C10.67 7.99 10.34 8.98 10 10 C3.65492958 10.35915493 3.65492958 10.35915493 1.0625 8.9375 C-0.55479605 5.98831309 -0.18630138 3.29132441 0 0 Z " fill="#A8ABB0" transform="translate(104,160)"/>
<path d="M0 0 C1.9955516 3.99110319 2.19546065 5.69986566 2 10 C2.66 10 3.32 10 4 10 C4.09765625 16.15234375 4.09765625 16.15234375 4 18 C3.67 18.33 3.34 18.66 3 19 C2.63239269 21.32817964 2.29758419 23.6618385 2 26 C1.67 26 1.34 26 1 26 C0.67 17.42 0.34 8.84 0 0 Z " fill="#B34B2D" transform="translate(47,52)"/>
<path d="M0 0 C2.0625 0.4375 2.0625 0.4375 4 1 C4 3.31 4 5.62 4 8 C2.35 8.33 0.7 8.66 -1 9 C-1.09765625 2.84765625 -1.09765625 2.84765625 -1 1 C-0.67 0.67 -0.34 0.34 0 0 Z " fill="#2C373B" transform="translate(139,114)"/>
<path d="M0 0 C0.99 0 1.98 0 3 0 C3.33 1.32 3.66 2.64 4 4 C6.31 4.33 8.62 4.66 11 5 C10.67 5.99 10.34 6.98 10 8 C3.59181818 8.36272727 3.59181818 8.36272727 1.0625 6.8125 C-0.32851983 4.43958382 -0.21917317 2.70313576 0 0 Z " fill="#A5ACB0" transform="translate(88,30)"/>
<path d="M0 0 C0.99 0 1.98 0 3 0 C3 1.65 3 3.3 3 5 C4.98 5 6.96 5 9 5 C9 5.66 9 6.32 9 7 C4.71 7 0.42 7 -4 7 C-4 6.34 -4 5.68 -4 5 C-2.68 5 -1.36 5 0 5 C0 3.35 0 1.7 0 0 Z " fill="#B59998" transform="translate(169,151)"/>
<path d="M0 0 C1.65 0 3.3 0 5 0 C5 4.29 5 8.58 5 13 C4.01 13 3.02 13 2 13 C2 9.04 2 5.08 2 1 C1.34 0.67 0.68 0.34 0 0 Z " fill="#A9806E" transform="translate(111,113)"/>
<path d="M0 0 C6.6 0 13.2 0 20 0 C16.43688534 2.672336 14.15414253 3.77263971 10 5 C10 3.68 10 2.36 10 1 C6.7 1 3.4 1 0 1 C0 0.67 0 0.34 0 0 Z " fill="#BF392C" transform="translate(172,163)"/>
<path d="M0 0 C0.66 0.33 1.32 0.66 2 1 C1.67 1.66 1.34 2.32 1 3 C0.93003986 4.70702735 0.91559846 6.41668003 0.9375 8.125 C0.95103516 9.49011719 0.95103516 9.49011719 0.96484375 10.8828125 C0.97644531 11.58148438 0.98804688 12.28015625 1 13 C0.01 13 -0.98 13 -2 13 C-2.33 12.01 -2.66 11.02 -3 10 C-3.33 9.67 -3.66 9.34 -4 9 C-4.14115161 6.32941149 -4.04247107 3.67567762 -4 1 C-2.68 1.33 -1.36 1.66 0 2 C0 1.34 0 0.68 0 0 Z " fill="#303C3F" transform="translate(166,112)"/>
<path d="M0 0 C1.8125 1.5 1.8125 1.5 3 3 C2.67 3.66 2.34 4.32 2 5 C1.34 4.67 0.68 4.34 0 4 C0 4.66 0 5.32 0 6 C-1.98 6 -3.96 6 -6 6 C-5.67 4.68 -5.34 3.36 -5 2 C-5.66 1.67 -6.32 1.34 -7 1 C-4.45132831 -0.27433584 -2.82594567 -0.27570202 0 0 Z " fill="#80604E" transform="translate(81,67)"/>
<path d="M0 0 C0.99 0 1.98 0 3 0 C3 1.32 3 2.64 3 4 C3.66 4 4.32 4 5 4 C5 2.68 5 1.36 5 0 C5.99 0 6.98 0 8 0 C8 1.65 8 3.3 8 5 C7.37351562 5.03738281 6.74703125 5.07476562 6.1015625 5.11328125 C4.87566406 5.21189453 4.87566406 5.21189453 3.625 5.3125 C2.81289063 5.37050781 2.00078125 5.42851562 1.1640625 5.48828125 C-1.37921338 5.82990528 -1.37921338 5.82990528 -3 9 C-2.67 7.35 -2.34 5.7 -2 4 C-1.34 4 -0.68 4 0 4 C0 2.68 0 1.36 0 0 Z " fill="#866344" transform="translate(43,150)"/>
<path d="M0 0 C0.99 0.495 0.99 0.495 2 1 C1.01 1.495 1.01 1.495 0 2 C0 1.34 0 0.68 0 0 Z M-6 1 C-4.35 1 -2.7 1 -1 1 C-1 1.99 -1 2.98 -1 4 C-1.33 4.33 -1.66 4.66 -2 5 C-1.34 6.32 -0.68 7.64 0 9 C-1.98 9 -3.96 9 -6 9 C-6 6.36 -6 3.72 -6 1 Z " fill="#2E322F" transform="translate(147,70)"/>
<path d="M0 0 C1.98 0 3.96 0 6 0 C6 5.28 6 10.56 6 16 C4 14 4 14 3.8046875 11.1796875 C3.83949219 9.54386719 3.83949219 9.54386719 3.875 7.875 C3.89304688 6.77929688 3.91109375 5.68359375 3.9296875 4.5546875 C3.95289063 3.71164063 3.97609375 2.86859375 4 2 C2.68 2 1.36 2 0 2 C0 1.34 0 0.68 0 0 Z " fill="#ADB5BA" transform="translate(181,107)"/>
<path d="M0 0 C0.66 0 1.32 0 2 0 C2 4.62 2 9.24 2 14 C1.01 14.495 1.01 14.495 0 15 C0 12.03 0 9.06 0 6 C-1.32 6 -2.64 6 -4 6 C-4 5.01 -4 4.02 -4 3 C-2.68 3 -1.36 3 0 3 C0 2.01 0 1.02 0 0 Z " fill="#B3816B" transform="translate(138,65)"/>
<path d="M0 0 C0.99 0 1.98 0 3 0 C2.67 1.65 2.34 3.3 2 5 C6.95 5 11.9 5 17 5 C17 5.33 17 5.66 17 6 C9.74 6 2.48 6 -5 6 C-3.68 5.67 -2.36 5.34 -1 5 C-0.67 3.35 -0.34 1.7 0 0 Z " fill="#B56157" transform="translate(79,149)"/>
<path d="M0 0 C0.99 0.33 1.98 0.66 3 1 C2.67 3.31 2.34 5.62 2 8 C0.68 8.33 -0.64 8.66 -2 9 C-2.125 5.625 -2.125 5.625 -2 2 C-1.34 1.34 -0.68 0.68 0 0 Z " fill="#2C373A" transform="translate(171,114)"/>
<path d="M0 0 C4.34159496 0.50483662 7.49408652 1.31900734 11 4 C11 4.99 11 5.98 11 7 C6.96678237 5.78065514 3.45730521 4.44045073 0 2 C0 1.34 0 0.68 0 0 Z " fill="#AFA3A6" transform="translate(57,29)"/>
<path d="M0 0 C2.76959615 2.76959615 2.65549073 5.02693296 3.1875 8.875 C3.36667969 10.10992187 3.54585937 11.34484375 3.73046875 12.6171875 C3.96063528 15.50594419 3.95197757 17.31285763 3 20 C1.0243438 17.03651571 0.73623141 16.31979627 0.5859375 12.98828125 C0.52792969 11.85229492 0.52792969 11.85229492 0.46875 10.69335938 C0.42234375 9.51483398 0.42234375 9.51483398 0.375 8.3125 C0.31699219 7.11657227 0.31699219 7.11657227 0.2578125 5.89648438 C0.16367506 3.93136525 0.08075368 1.9657146 0 0 Z " fill="#4E1209" transform="translate(200,88)"/>
<path d="M0 0 C2.64 0 5.28 0 8 0 C7.67 2.31 7.34 4.62 7 7 C6.34 7 5.68 7 5 7 C5 6.01 5 5.02 5 4 C3.35 4 1.7 4 0 4 C0 2.68 0 1.36 0 0 Z " fill="#3B2E2F" transform="translate(127,31)"/>
<path d="M0 0 C0.33 0 0.66 0 1 0 C1 5.28 1 10.56 1 16 C0.34 16 -0.32 16 -1 16 C-1.33 15.01 -1.66 14.02 -2 13 C-1.67 12.34 -1.34 11.68 -1 11 C-1.28757653 8.98696426 -1.57863489 6.97350859 -1.94140625 4.97265625 C-2 3 -2 3 0 0 Z " fill="#B2B6BD" transform="translate(145,110)"/>
<path d="M0 0 C1.37562854 1.28965176 2.70766393 2.62689293 4 4 C4 4.66 4 5.32 4 6 C3.01 6 2.02 6 1 6 C1.33 8.31 1.66 10.62 2 13 C-0.61500768 10.63404067 -2.38999603 8.13950774 -4 5 C-3.67 4.34 -3.34 3.68 -3 3 C-1.68 3.66 -0.36 4.32 1 5 C0.67 3.35 0.34 1.7 0 0 Z " fill="#D52811" transform="translate(196,67)"/>
<path d="M0 0 C1.65 0 3.3 0 5 0 C5 4.95 5 9.9 5 15 C4.34 15 3.68 15 3 15 C2.95101562 14.08476563 2.90203125 13.16953125 2.8515625 12.2265625 C2.77679688 11.03804687 2.70203125 9.84953125 2.625 8.625 C2.55539063 7.44164063 2.48578125 6.25828125 2.4140625 5.0390625 C2.29782654 1.89437681 2.29782654 1.89437681 0 0 Z " fill="#36989F" transform="translate(169,63)"/>
<path d="M0 0 C0.99 0 1.98 0 3 0 C3 0.99 3 1.98 3 3 C4.98 3 6.96 3 9 3 C9 3.99 9 4.98 9 6 C5.625 6.125 5.625 6.125 2 6 C1.34 5.34 0.68 4.68 0 4 C0 2.68 0 1.36 0 0 Z " fill="#A2A8AA" transform="translate(169,164)"/>
<path d="M0 0 C0.66 0 1.32 0 2 0 C2.1953125 6.0546875 2.1953125 6.0546875 2 8 C0 10 0 10 -3.125 10.125 C-4.548125 10.063125 -4.548125 10.063125 -6 10 C-6.33 9.34 -6.66 8.68 -7 8 C-5.02 7.34 -3.04 6.68 -1 6 C-0.67 4.02 -0.34 2.04 0 0 Z " fill="#B18471" transform="translate(97,116)"/>
<path d="M0 0 C6.6 0 13.2 0 20 0 C20 0.33 20 0.66 20 1 C18.95199219 1.04898438 17.90398437 1.09796875 16.82421875 1.1484375 C15.44528646 1.22348143 14.0663815 1.29902857 12.6875 1.375 C11.65206055 1.42140625 11.65206055 1.42140625 10.59570312 1.46875 C6.93009211 1.68124919 5.12099208 1.91933861 2 4 C1.01 4 0.02 4 -1 4 C-0.67 2.68 -0.34 1.36 0 0 Z " fill="#C75A4A" transform="translate(167,32)"/>
<path d="M0 0 C3.375 0.3125 3.375 0.3125 7 1 C9.4294516 4.6441774 9.16179575 6.71241272 9 11 C8.67 11 8.34 11 8 11 C8 9.02 8 7.04 8 5 C7.01 5 6.02 5 5 5 C5 4.34 5 3.68 5 3 C3.35 3 1.7 3 0 3 C0 2.01 0 1.02 0 0 Z " fill="#9E7964" transform="translate(91,111)"/>
<path d="M0 0 C1.32 0 2.64 0 4 0 C4.25 2.8125 4.25 2.8125 4 6 C2.1875 7.875 2.1875 7.875 0 9 C-0.99 9 -1.98 9 -3 9 C-2.67 8.01 -2.34 7.02 -2 6 C-1.01 5.67 -0.02 5.34 1 5 C1.33 4.34 1.66 3.68 2 3 C1.34 3 0.68 3 0 3 C0 2.01 0 1.02 0 0 Z " fill="#ACA6A7" transform="translate(201,35)"/>
<path d="M0 0 C2.97 0.33 5.94 0.66 9 1 C9.33 1.99 9.66 2.98 10 4 C7.36 4 4.72 4 2 4 C1.34 2.68 0.68 1.36 0 0 Z " fill="#A5ACB3" transform="translate(88,166)"/>
<path d="M0 0 C0.33 0 0.66 0 1 0 C1 4.62 1 9.24 1 14 C-0.32 13.67 -1.64 13.34 -3 13 C-3 13.66 -3 14.32 -3 15 C-4.32 14.67 -5.64 14.34 -7 14 C-5.1875 12 -5.1875 12 -3 10 C-2.01 10 -1.02 10 0 10 C0 6.7 0 3.4 0 0 Z " fill="#463936" transform="translate(102,112)"/>
<path d="M0 0 C1.134375 0.020625 2.26875 0.04125 3.4375 0.0625 C3.4375 0.7225 3.4375 1.3825 3.4375 2.0625 C2.261875 2.2171875 2.261875 2.2171875 1.0625 2.375 C-1.89295181 2.83845022 -1.89295181 2.83845022 -3.5625 6.0625 C-4.5625 7.0625 -4.5625 7.0625 -7.125 7.125 C-8.3315625 7.0940625 -8.3315625 7.0940625 -9.5625 7.0625 C-8.2425 6.7325 -6.9225 6.4025 -5.5625 6.0625 C-5.418125 5.258125 -5.27375 4.45375 -5.125 3.625 C-4.26443625 -0.29534596 -4.23242358 0.07425305 0 0 Z " fill="#9E7B6C" transform="translate(65.5625,106.9375)"/>
<path d="M0 0 C0.99 0 1.98 0 3 0 C3 0.99 3 1.98 3 3 C4.65 3 6.3 3 8 3 C8 3.99 8 4.98 8 6 C5.125 6.125 5.125 6.125 2 6 C1.34 5.34 0.68 4.68 0 4 C0 2.68 0 1.36 0 0 Z " fill="#A7AAAE" transform="translate(154,32)"/>
<path d="M0 0 C0 4.62 0 9.24 0 14 C-0.33 14 -0.66 14 -1 14 C-1.33 10.04 -1.66 6.08 -2 2 C-3.32 2.33 -4.64 2.66 -6 3 C-6 2.01 -6 1.02 -6 0 C-4 -1 -4 -1 0 0 Z " fill="#32848A" transform="translate(172,65)"/>
<path d="M0 0 C3.96 0 7.92 0 12 0 C12.33 0.66 12.66 1.32 13 2 C10.36 2 7.72 2 5 2 C4.67 3.32 4.34 4.64 4 6 C4 4.68 4 3.36 4 2 C2.68 2 1.36 2 0 2 C0 1.34 0 0.68 0 0 Z " fill="#BA3A28" transform="translate(201,33)"/>
<path d="M0 0 C1.65 0 3.3 0 5 0 C5 1.65 5 3.3 5 5 C3.02 5 1.04 5 -1 5 C-0.67 3.35 -0.34 1.7 0 0 Z " fill="#494036" transform="translate(64,109)"/>
<path d="M0 0 C0.33 0 0.66 0 1 0 C1.33 5.61 1.66 11.22 2 17 C0.68 16.67 -0.64 16.34 -2 16 C-1.34 10.72 -0.68 5.44 0 0 Z " fill="#50463F" transform="translate(91,65)"/>
<path d="M0 0 C3.94727588 -0.17942163 6.5980513 -0.09350689 10 2 C10 2.66 10 3.32 10 4 C9.34 4 8.68 4 8 4 C7.67 4.66 7.34 5.32 7 6 C6.67 5.34 6.34 4.68 6 4 C4.02111039 3.27306096 2.02045442 2.60183749 0 2 C0 1.34 0 0.68 0 0 Z " fill="#B39999" transform="translate(74,29)"/>
<path d="M0 0 C0.99 0 1.98 0 3 0 C3 2.97 3 5.94 3 9 C2.01 9 1.02 9 0 9 C0 6.03 0 3.06 0 0 Z " fill="#A8A4A6" transform="translate(120,161)"/>
<path d="M0 0 C0 2.31 0 4.62 0 7 C-0.66 7 -1.32 7 -2 7 C-2.33 8.65 -2.66 10.3 -3 12 C-3.33 12 -3.66 12 -4 12 C-4.08131463 10.56344146 -4.13933559 9.1255517 -4.1875 7.6875 C-4.22230469 6.88699219 -4.25710937 6.08648437 -4.29296875 5.26171875 C-3.98428663 2.87869278 -2.85980321 0 0 0 Z " fill="#12221C" transform="translate(55,59)"/>
<path d="M0 0 C0.99 0 1.98 0 3 0 C2.125 4.875 2.125 4.875 1 6 C-0.66617115 6.04063832 -2.33388095 6.042721 -4 6 C-4.33 5.34 -4.66 4.68 -5 4 C-3.68 4 -2.36 4 -1 4 C-0.67 2.68 -0.34 1.36 0 0 Z " fill="#A6A5AB" transform="translate(159,164)"/>
<path d="M0 0 C1.65 0 3.3 0 5 0 C5.66 1.65 6.32 3.3 7 5 C4.03 4.505 4.03 4.505 1 4 C0.67 2.68 0.34 1.36 0 0 Z " fill="#B0A4A5" transform="translate(57,160)"/>
<path d="M0 0 C3.3 0 6.6 0 10 0 C9.01 1.485 9.01 1.485 8 3 C4.375 3.1875 4.375 3.1875 1 3 C0.67 2.01 0.34 1.02 0 0 Z " fill="#3C3631" transform="translate(75,76)"/>
<path d="M0 0 C2.97 0.495 2.97 0.495 6 1 C5.67 2.32 5.34 3.64 5 5 C3.02 4.34 1.04 3.68 -1 3 C-0.67 2.01 -0.34 1.02 0 0 Z " fill="#313B3D" transform="translate(68,162)"/>
<path d="M0 0 C7.75 -0.125 7.75 -0.125 10 1 C10 1.66 10 2.32 10 3 C2.25 3.125 2.25 3.125 0 2 C0 1.34 0 0.68 0 0 Z " fill="#BA9592" transform="translate(151,155)"/>
<path d="M0 0 C0.99 0 1.98 0 3 0 C3 2.64 3 5.28 3 8 C2.01 8 1.02 8 0 8 C0 5.36 0 2.72 0 0 Z " fill="#5F8666" transform="translate(204,150)"/>
<path d="M0 0 C0.99 0 1.98 0 3 0 C3 2.64 3 5.28 3 8 C2.01 8 1.02 8 0 8 C0 5.36 0 2.72 0 0 Z " fill="#628462" transform="translate(199,150)"/>
<path d="M0 0 C0.33 0 0.66 0 1 0 C1 2.31 1 4.62 1 7 C-1.64 7 -4.28 7 -7 7 C-7 6.01 -7 5.02 -7 4 C-5.02 4 -3.04 4 -1 4 C-0.67 2.68 -0.34 1.36 0 0 Z " fill="#313133" transform="translate(194,150)"/>
<path d="M0 0 C1.67542976 0.28604898 3.34385343 0.61781233 5 1 C5 1.66 5 2.32 5 3 C3.68 3.33 2.36 3.66 1 4 C0.67 5.98 0.34 7.96 0 10 C-0.33 10 -0.66 10 -1 10 C-1.02689216 8.52093108 -1.04634621 7.04172517 -1.0625 5.5625 C-1.07410156 4.73878906 -1.08570312 3.91507812 -1.09765625 3.06640625 C-1 1 -1 1 0 0 Z " fill="#383631" transform="translate(77,114)"/>
<path d="M0 0 C0.99 0 1.98 0 3 0 C3 2.64 3 5.28 3 8 C2.01 8 1.02 8 0 8 C0 5.36 0 2.72 0 0 Z " fill="#5E8765" transform="translate(199,106)"/>
<path d="M0 0 C2.31 0.33 4.62 0.66 7 1 C7 1.99 7 2.98 7 4 C4.69 4 2.38 4 0 4 C0 2.68 0 1.36 0 0 Z " fill="#A27C6B" transform="translate(140,78)"/>
<path d="M0 0 C2.31 0.33 4.62 0.66 7 1 C7 1.99 7 2.98 7 4 C4.69 4 2.38 4 0 4 C0 2.68 0 1.36 0 0 Z " fill="#A77E68" transform="translate(93,78)"/>
<path d="M0 0 C3.465 1.485 3.465 1.485 7 3 C7 3.66 7 4.32 7 5 C4.36 4.67 1.72 4.34 -1 4 C-0.67 2.68 -0.34 1.36 0 0 Z " fill="#413831" transform="translate(58,74)"/>
<path d="M0 0 C0.99 0 1.98 0 3 0 C3 2.64 3 5.28 3 8 C2.01 8 1.02 8 0 8 C0 5.36 0 2.72 0 0 Z " fill="#618561" transform="translate(183,62)"/>
<path d="M0 0 C0.99 0 1.98 0 3 0 C3 2.64 3 5.28 3 8 C2.01 8 1.02 8 0 8 C0 5.36 0 2.72 0 0 Z " fill="#AAA1A3" transform="translate(104,30)"/>
<path d="M0 0 C0.99 0 1.98 0 3 0 C3 2.64 3 5.28 3 8 C2.01 8 1.02 8 0 8 C0 5.36 0 2.72 0 0 Z " fill="#608562" transform="translate(183,18)"/>
<path d="M0 0 C0 0.99 0 1.98 0 3 C-2.70879335 4.35439668 -5.00933268 4.06501451 -8 4 C-7.67 3.01 -7.34 2.02 -7 1 C-4.52260646 0.09162237 -2.66420516 0 0 0 Z " fill="#9C7966" transform="translate(115,78)"/>
<path d="M0 0 C0.33 0 0.66 0 1 0 C1.66 3.3 2.32 6.6 3 10 C2.01 10 1.02 10 0 10 C-1.49106457 7.01787087 -1.11941467 4.28390342 -1 1 C-0.67 0.67 -0.34 0.34 0 0 Z " fill="#B7846E" transform="translate(105,71)"/>
<path d="M0 0 C2.64 0.33 5.28 0.66 8 1 C7.67 1.99 7.34 2.98 7 4 C4.03 3.505 4.03 3.505 1 3 C0.67 2.01 0.34 1.02 0 0 Z " fill="#443C2E" transform="translate(60,70)"/>
<path d="M0 0 C2.0625 0.4375 2.0625 0.4375 4 1 C4.33 2.65 4.66 4.3 5 6 C2.5625 5.1875 2.5625 5.1875 0 4 C-0.33 3.01 -0.66 2.02 -1 1 C-0.67 0.67 -0.34 0.34 0 0 Z " fill="#FA2304" transform="translate(192,66)"/>
<path d="M0 0 C0.66 0 1.32 0 2 0 C2.93423645 3.01031744 3.04449911 3.86650268 2 7 C1.01 7 0.02 7 -1 7 C-1.04254356 5.00045254 -1.04080783 2.99958364 -1 1 C-0.67 0.67 -0.34 0.34 0 0 Z " fill="#283335" transform="translate(93,115)"/>
<path d="M0 0 C0.66 0 1.32 0 2 0 C2 0.66 2 1.32 2 2 C2.99 2 3.98 2 5 2 C5.66 4.64 6.32 7.28 7 10 C5.5 8.6875 5.5 8.6875 4 7 C4 6.01 4 5.02 4 4 C2.68 4 1.36 4 0 4 C0 2.68 0 1.36 0 0 Z " fill="#A74F30" transform="translate(204,110)"/>
<path d="M0 0 C3.68754757 0.49831724 5.60490662 1.10067643 8 4 C2.25 4.125 2.25 4.125 0 3 C0 2.01 0 1.02 0 0 Z " fill="#BDA0A1" transform="translate(166,23)"/>
<path d="M0 0 C1.32 0.33 2.64 0.66 4 1 C3.25 3.4375 3.25 3.4375 2 6 C-0.125 6.8125 -0.125 6.8125 -2 7 C-1.34 4.69 -0.68 2.38 0 0 Z " fill="#A79C9D" transform="translate(75,160)"/>
<path d="M0 0 C0.33 0 0.66 0 1 0 C0.67 2.31 0.34 4.62 0 7 C-1.98 7.66 -3.96 8.32 -6 9 C-5.67 8.01 -5.34 7.02 -5 6 C-4.34 5.690625 -3.68 5.38125 -3 5.0625 C-0.79394438 4.17972859 -0.79394438 4.17972859 -0.25 1.875 C-0.1675 1.25625 -0.085 0.6375 0 0 Z " fill="#B09798" transform="translate(220,123)"/>
<path d="M0 0 C0.66 1.32 1.32 2.64 2 4 C0.35 4 -1.3 4 -3 4 C-3 4.66 -3 5.32 -3 6 C-3.66 5.67 -4.32 5.34 -5 5 C-4.1875 3.0625 -4.1875 3.0625 -3 1 C-2.01 0.67 -1.02 0.34 0 0 Z " fill="#2D1B17" transform="translate(53,113)"/>
<path d="M0 0 C2.475 0.495 2.475 0.495 5 1 C4.67 2.32 4.34 3.64 4 5 C2.68 4.67 1.36 4.34 0 4 C0 2.68 0 1.36 0 0 Z " fill="#F02506" transform="translate(187,58)"/>
<path d="M0 0 C2.31 0 4.62 0 7 0 C4.82575883 2.50037734 3.26954202 3.43628586 0 4 C0 2.68 0 1.36 0 0 Z " fill="#AAA1A4" transform="translate(182,164)"/>
<path d="M0 0 C0 1.65 0 3.3 0 5 C-1.65 4.67 -3.3 4.34 -5 4 C-5.33 3.01 -5.66 2.02 -6 1 C-1.125 0 -1.125 0 0 0 Z " fill="#D72A0F" transform="translate(219,123)"/>
<path d="M0 0 C3 2 3 2 3.6875 4.625 C3.8421875 5.800625 3.8421875 5.800625 4 7 C3.34 7 2.68 7 2 7 C1.67 7.66 1.34 8.32 1 9 C-0.4783226 6.04335481 -0.06032783 3.25770263 0 0 Z " fill="#9A7861" transform="translate(119,71)"/>
<path d="M0 0 C1.65 0 3.3 0 5 0 C5 1.32 5 2.64 5 4 C3.35 3.67 1.7 3.34 0 3 C0 2.01 0 1.02 0 0 Z " fill="#422F30" transform="translate(138,31)"/>
<path d="M0 0 C3.3 0 6.6 0 10 0 C10 0.99 10 1.98 10 3 C8.68 3 7.36 3 6 3 C6 2.34 6 1.68 6 1 C4.02 1 2.04 1 0 1 C0 0.67 0 0.34 0 0 Z " fill="#4D3A39" transform="translate(172,155)"/>
<path d="M0 0 C0.66 0 1.32 0 2 0 C1.67 1.65 1.34 3.3 1 5 C1.66 5.33 2.32 5.66 3 6 C1.68 6.33 0.36 6.66 -1 7 C-1.04254356 5.00045254 -1.04080783 2.99958364 -1 1 C-0.67 0.67 -0.34 0.34 0 0 Z " fill="#B7866C" transform="translate(74,69)"/>
<path d="M0 0 C1.98 0 3.96 0 6 0 C5.34 1.65 4.68 3.3 4 5 C2.68 3.35 1.36 1.7 0 0 Z " fill="#303233" transform="translate(97,161)"/>
<path d="M0 0 C0.66 0.33 1.32 0.66 2 1 C1.34 3.31 0.68 5.62 0 8 C-0.66 7.67 -1.32 7.34 -2 7 C-1.125 1.125 -1.125 1.125 0 0 Z " fill="#B3856F" transform="translate(90,112)"/>
<path d="M0 0 C0.66 0 1.32 0 2 0 C1.67 2.64 1.34 5.28 1 8 C0.34 8 -0.32 8 -1 8 C-0.67 5.36 -0.34 2.72 0 0 Z " fill="#ADB3B8" transform="translate(175,111)"/>
</svg>
